M48
;DRILL file {KiCad 4.0.2-4+6225~38~ubuntu14.04.1-stable} date Sat 30 Apr 2016 11:34:58 AM PDT
;FORMAT={-:-/ absolute / inch / decimal}
FMAT,2
INCH,TZ
T1C0.016
T2C0.040
T3C0.051
%
G90
G05
M72
T1
X5.3Y-4.125
X5.45Y-4.75
X5.475Y-4.375
X5.525Y-4.775
X5.625Y-3.875
X5.625Y-3.925
X5.625Y-3.975
X5.625Y-4.025
X5.65Y-4.075
X5.675Y-3.875
X5.675Y-3.925
X5.675Y-3.975
X5.675Y-4.025
X5.675Y-4.125
X5.7Y-4.2
X5.725Y-3.875
X5.725Y-3.925
X5.725Y-3.975
X5.725Y-4.025
X5.725Y-4.075
X5.725Y-4.125
T2
X5.1Y-4.85
X5.2Y-4.85
X5.3Y-4.5
X5.3Y-4.6
X5.3Y-4.85
X5.4Y-4.5
X5.4Y-4.6
X5.4Y-4.85
X5.5Y-4.5
X5.5Y-4.6
X5.5Y-4.85
X5.6Y-4.5
X5.6Y-4.6
X5.6Y-4.85
X5.7Y-4.85
T3
X5.2Y-3.9813
X5.2Y-4.1781
X5.2Y-4.375
T0
M30
