G04 #@! TF.FileFunction,Legend,Bot*
%FSLAX46Y46*%
G04 Gerber Fmt 4.6, Leading zero omitted, Abs format (unit mm)*
G04 Created by KiCad (PCBNEW 4.0.2-4+6225~38~ubuntu14.04.1-stable) date Wed 13 Apr 2016 10:12:00 PM PDT*
%MOMM*%
G01*
G04 APERTURE LIST*
%ADD10C,0.100000*%
%ADD11C,0.300000*%
%ADD12C,0.175000*%
%ADD13C,0.200000*%
%ADD14C,0.150000*%
%ADD15C,0.010000*%
G04 APERTURE END LIST*
D10*
D11*
X128536000Y-99822143D02*
X128464571Y-99679286D01*
X128464571Y-99465000D01*
X128536000Y-99250715D01*
X128678857Y-99107857D01*
X128821714Y-99036429D01*
X129107429Y-98965000D01*
X129321714Y-98965000D01*
X129607429Y-99036429D01*
X129750286Y-99107857D01*
X129893143Y-99250715D01*
X129964571Y-99465000D01*
X129964571Y-99607857D01*
X129893143Y-99822143D01*
X129821714Y-99893572D01*
X129321714Y-99893572D01*
X129321714Y-99607857D01*
X129964571Y-100536429D02*
X128464571Y-100536429D01*
X129964571Y-101393572D01*
X128464571Y-101393572D01*
X129964571Y-102107858D02*
X128464571Y-102107858D01*
X128464571Y-102465001D01*
X128536000Y-102679286D01*
X128678857Y-102822144D01*
X128821714Y-102893572D01*
X129107429Y-102965001D01*
X129321714Y-102965001D01*
X129607429Y-102893572D01*
X129750286Y-102822144D01*
X129893143Y-102679286D01*
X129964571Y-102465001D01*
X129964571Y-102107858D01*
X130234429Y-108259285D02*
X130234429Y-107330714D01*
X129663000Y-107830714D01*
X129663000Y-107616428D01*
X129591571Y-107473571D01*
X129520143Y-107402142D01*
X129377286Y-107330714D01*
X129020143Y-107330714D01*
X128877286Y-107402142D01*
X128805857Y-107473571D01*
X128734429Y-107616428D01*
X128734429Y-108045000D01*
X128805857Y-108187857D01*
X128877286Y-108259285D01*
X128877286Y-106687857D02*
X128805857Y-106616429D01*
X128734429Y-106687857D01*
X128805857Y-106759286D01*
X128877286Y-106687857D01*
X128734429Y-106687857D01*
X130234429Y-106116428D02*
X130234429Y-105187857D01*
X129663000Y-105687857D01*
X129663000Y-105473571D01*
X129591571Y-105330714D01*
X129520143Y-105259285D01*
X129377286Y-105187857D01*
X129020143Y-105187857D01*
X128877286Y-105259285D01*
X128805857Y-105330714D01*
X128734429Y-105473571D01*
X128734429Y-105902143D01*
X128805857Y-106045000D01*
X128877286Y-106116428D01*
X130234429Y-104759286D02*
X128734429Y-104259286D01*
X130234429Y-103759286D01*
D12*
X145313333Y-120808000D02*
X145379999Y-120774667D01*
X145479999Y-120774667D01*
X145579999Y-120808000D01*
X145646666Y-120874667D01*
X145679999Y-120941333D01*
X145713333Y-121074667D01*
X145713333Y-121174667D01*
X145679999Y-121308000D01*
X145646666Y-121374667D01*
X145579999Y-121441333D01*
X145479999Y-121474667D01*
X145413333Y-121474667D01*
X145313333Y-121441333D01*
X145279999Y-121408000D01*
X145279999Y-121174667D01*
X145413333Y-121174667D01*
X144979999Y-121474667D02*
X144979999Y-120774667D01*
X144579999Y-121474667D01*
X144579999Y-120774667D01*
X144246666Y-121474667D02*
X144246666Y-120774667D01*
X144080000Y-120774667D01*
X143980000Y-120808000D01*
X143913333Y-120874667D01*
X143880000Y-120941333D01*
X143846666Y-121074667D01*
X143846666Y-121174667D01*
X143880000Y-121308000D01*
X143913333Y-121374667D01*
X143980000Y-121441333D01*
X144080000Y-121474667D01*
X144246666Y-121474667D01*
X142623333Y-121408000D02*
X142656667Y-121441333D01*
X142756667Y-121474667D01*
X142823333Y-121474667D01*
X142923333Y-121441333D01*
X142990000Y-121374667D01*
X143023333Y-121308000D01*
X143056667Y-121174667D01*
X143056667Y-121074667D01*
X143023333Y-120941333D01*
X142990000Y-120874667D01*
X142923333Y-120808000D01*
X142823333Y-120774667D01*
X142756667Y-120774667D01*
X142656667Y-120808000D01*
X142623333Y-120841333D01*
X142423333Y-120774667D02*
X142023333Y-120774667D01*
X142223333Y-121474667D02*
X142223333Y-120774667D01*
X141823334Y-121441333D02*
X141723334Y-121474667D01*
X141556667Y-121474667D01*
X141490000Y-121441333D01*
X141456667Y-121408000D01*
X141423334Y-121341333D01*
X141423334Y-121274667D01*
X141456667Y-121208000D01*
X141490000Y-121174667D01*
X141556667Y-121141333D01*
X141690000Y-121108000D01*
X141756667Y-121074667D01*
X141790000Y-121041333D01*
X141823334Y-120974667D01*
X141823334Y-120908000D01*
X141790000Y-120841333D01*
X141756667Y-120808000D01*
X141690000Y-120774667D01*
X141523334Y-120774667D01*
X141423334Y-120808000D01*
X140684133Y-120774667D02*
X140450800Y-121474667D01*
X140217467Y-120774667D01*
X139584133Y-121408000D02*
X139617467Y-121441333D01*
X139717467Y-121474667D01*
X139784133Y-121474667D01*
X139884133Y-121441333D01*
X139950800Y-121374667D01*
X139984133Y-121308000D01*
X140017467Y-121174667D01*
X140017467Y-121074667D01*
X139984133Y-120941333D01*
X139950800Y-120874667D01*
X139884133Y-120808000D01*
X139784133Y-120774667D01*
X139717467Y-120774667D01*
X139617467Y-120808000D01*
X139584133Y-120841333D01*
X138884133Y-121408000D02*
X138917467Y-121441333D01*
X139017467Y-121474667D01*
X139084133Y-121474667D01*
X139184133Y-121441333D01*
X139250800Y-121374667D01*
X139284133Y-121308000D01*
X139317467Y-121174667D01*
X139317467Y-121074667D01*
X139284133Y-120941333D01*
X139250800Y-120874667D01*
X139184133Y-120808000D01*
X139084133Y-120774667D01*
X139017467Y-120774667D01*
X138917467Y-120808000D01*
X138884133Y-120841333D01*
X137744133Y-120774667D02*
X137344133Y-120774667D01*
X137544133Y-121474667D02*
X137544133Y-120774667D01*
X137177467Y-120774667D02*
X136710800Y-121474667D01*
X136710800Y-120774667D02*
X137177467Y-121474667D01*
X134838266Y-121474667D02*
X135071600Y-121141333D01*
X135238266Y-121474667D02*
X135238266Y-120774667D01*
X134971600Y-120774667D01*
X134904933Y-120808000D01*
X134871600Y-120841333D01*
X134838266Y-120908000D01*
X134838266Y-121008000D01*
X134871600Y-121074667D01*
X134904933Y-121108000D01*
X134971600Y-121141333D01*
X135238266Y-121141333D01*
X134604933Y-120774667D02*
X134138266Y-121474667D01*
X134138266Y-120774667D02*
X134604933Y-121474667D01*
X132778399Y-121474667D02*
X132778399Y-120774667D01*
X132611733Y-120774667D01*
X132511733Y-120808000D01*
X132445066Y-120874667D01*
X132411733Y-120941333D01*
X132378399Y-121074667D01*
X132378399Y-121174667D01*
X132411733Y-121308000D01*
X132445066Y-121374667D01*
X132511733Y-121441333D01*
X132611733Y-121474667D01*
X132778399Y-121474667D01*
X132178399Y-120774667D02*
X131778399Y-120774667D01*
X131978399Y-121474667D02*
X131978399Y-120774667D01*
X131145066Y-121474667D02*
X131378400Y-121141333D01*
X131545066Y-121474667D02*
X131545066Y-120774667D01*
X131278400Y-120774667D01*
X131211733Y-120808000D01*
X131178400Y-120841333D01*
X131145066Y-120908000D01*
X131145066Y-121008000D01*
X131178400Y-121074667D01*
X131211733Y-121108000D01*
X131278400Y-121141333D01*
X131545066Y-121141333D01*
X129923333Y-121474667D02*
X130156667Y-121141333D01*
X130323333Y-121474667D02*
X130323333Y-120774667D01*
X130056667Y-120774667D01*
X129990000Y-120808000D01*
X129956667Y-120841333D01*
X129923333Y-120908000D01*
X129923333Y-121008000D01*
X129956667Y-121074667D01*
X129990000Y-121108000D01*
X130056667Y-121141333D01*
X130323333Y-121141333D01*
X129723333Y-120774667D02*
X129323333Y-120774667D01*
X129523333Y-121474667D02*
X129523333Y-120774667D01*
X129123334Y-121441333D02*
X129023334Y-121474667D01*
X128856667Y-121474667D01*
X128790000Y-121441333D01*
X128756667Y-121408000D01*
X128723334Y-121341333D01*
X128723334Y-121274667D01*
X128756667Y-121208000D01*
X128790000Y-121174667D01*
X128856667Y-121141333D01*
X128990000Y-121108000D01*
X129056667Y-121074667D01*
X129090000Y-121041333D01*
X129123334Y-120974667D01*
X129123334Y-120908000D01*
X129090000Y-120841333D01*
X129056667Y-120808000D01*
X128990000Y-120774667D01*
X128823334Y-120774667D01*
X128723334Y-120808000D01*
D13*
X145999200Y-124460000D02*
X145999200Y-121920000D01*
X143459200Y-124460000D02*
X145999200Y-124460000D01*
X143459200Y-121920000D02*
X143459200Y-124460000D01*
X145999200Y-121920000D02*
X143459200Y-121920000D01*
D14*
X129372360Y-117350540D02*
X128811020Y-117609620D01*
X128811020Y-117609620D02*
X128292860Y-117071140D01*
X128292860Y-117071140D02*
X128562100Y-116550440D01*
X128562100Y-116550440D02*
X128402080Y-116271040D01*
X128422400Y-114830860D02*
X128612900Y-114500660D01*
X128612900Y-114500660D02*
X128282700Y-114061240D01*
X128282700Y-114061240D02*
X128772920Y-113588800D01*
X128772920Y-113588800D02*
X129252980Y-113870740D01*
X129252980Y-113870740D02*
X129722880Y-113680240D01*
X129722880Y-113680240D02*
X129910840Y-113070640D01*
X129910840Y-113070640D02*
X130591560Y-113070640D01*
X130591560Y-113070640D02*
X130731260Y-113629440D01*
X130731260Y-113629440D02*
X131302760Y-113830100D01*
X131302760Y-113830100D02*
X131772660Y-113560860D01*
X131772660Y-113560860D02*
X132283200Y-114030760D01*
X132283200Y-114030760D02*
X132021580Y-114548920D01*
X132021580Y-114548920D02*
X132222240Y-115018820D01*
X132222240Y-115018820D02*
X132763260Y-115189000D01*
X132763260Y-115189000D02*
X132781040Y-115879880D01*
X132781040Y-115879880D02*
X132232400Y-116090700D01*
X132232400Y-116090700D02*
X132062220Y-116509800D01*
X132062220Y-116509800D02*
X132331460Y-117060980D01*
X132331460Y-117060980D02*
X131803140Y-117579140D01*
X131803140Y-117579140D02*
X131262120Y-117330220D01*
X131262120Y-117330220D02*
X130782060Y-117500400D01*
X130782060Y-117500400D02*
X130683000Y-118049040D01*
X130683000Y-118049040D02*
X129981960Y-118059200D01*
X129981960Y-118059200D02*
X129781300Y-117500400D01*
X129781300Y-117500400D02*
X129382520Y-117360700D01*
X129402840Y-115219480D02*
X129552700Y-114919760D01*
X129552700Y-114919760D02*
X129750820Y-114719100D01*
X129750820Y-114719100D02*
X130152140Y-114569240D01*
X130152140Y-114569240D02*
X130550920Y-114569240D01*
X130550920Y-114569240D02*
X130901440Y-114719100D01*
X130901440Y-114719100D02*
X131251960Y-115171220D01*
X131251960Y-115171220D02*
X131302760Y-115620800D01*
X131302760Y-115620800D02*
X131201160Y-116019580D01*
X131201160Y-116019580D02*
X130853180Y-116420900D01*
X130853180Y-116420900D02*
X130401060Y-116570760D01*
X130401060Y-116570760D02*
X129903220Y-116519960D01*
X129903220Y-116519960D02*
X129600960Y-116271040D01*
X129600960Y-116271040D02*
X129402840Y-115920520D01*
X129402840Y-115920520D02*
X128402080Y-116271040D01*
X129402840Y-115219480D02*
X128402080Y-114820700D01*
D15*
G36*
X137737836Y-112943275D02*
X137859243Y-112918397D01*
X137894227Y-112908759D01*
X138135795Y-112819783D01*
X138359122Y-112697497D01*
X138559736Y-112545071D01*
X138733167Y-112365672D01*
X138816431Y-112255073D01*
X138896220Y-112121110D01*
X138944982Y-111992760D01*
X138967218Y-111855898D01*
X138969780Y-111773699D01*
X138968998Y-111604518D01*
X139175792Y-111377459D01*
X139230804Y-111316591D01*
X139309304Y-111229066D01*
X139407903Y-111118712D01*
X139523209Y-110989351D01*
X139651831Y-110844809D01*
X139790378Y-110688912D01*
X139935459Y-110525484D01*
X140083683Y-110358350D01*
X140231660Y-110191336D01*
X140375997Y-110028265D01*
X140513305Y-109872963D01*
X140640191Y-109729256D01*
X140753266Y-109600967D01*
X140849138Y-109491923D01*
X140924415Y-109405947D01*
X140964920Y-109359367D01*
X141029474Y-109287427D01*
X141090177Y-109224492D01*
X141138792Y-109178865D01*
X141160799Y-109161926D01*
X141197753Y-109145007D01*
X141265906Y-109119181D01*
X141357522Y-109087176D01*
X141464863Y-109051720D01*
X141546879Y-109025793D01*
X141751891Y-108962058D01*
X141922228Y-108908664D01*
X142062090Y-108864114D01*
X142175681Y-108826911D01*
X142267203Y-108795558D01*
X142340857Y-108768558D01*
X142400846Y-108744415D01*
X142451371Y-108721631D01*
X142496635Y-108698710D01*
X142540841Y-108674154D01*
X142551791Y-108667833D01*
X142662823Y-108592765D01*
X142782839Y-108493867D01*
X142901824Y-108380926D01*
X143009766Y-108263730D01*
X143096650Y-108152068D01*
X143126045Y-108106511D01*
X143164228Y-108039341D01*
X143198086Y-107972025D01*
X143228758Y-107900275D01*
X143257382Y-107819800D01*
X143285096Y-107726314D01*
X143313041Y-107615526D01*
X143342353Y-107483148D01*
X143374172Y-107324892D01*
X143409635Y-107136468D01*
X143449883Y-106913587D01*
X143464293Y-106832400D01*
X143488360Y-106693552D01*
X143507452Y-106591738D01*
X143525883Y-106524428D01*
X143547961Y-106489092D01*
X143577999Y-106483198D01*
X143620309Y-106504216D01*
X143679200Y-106549616D01*
X143758985Y-106616868D01*
X143788822Y-106641912D01*
X143885841Y-106724466D01*
X143955189Y-106787823D01*
X144001741Y-106837131D01*
X144030369Y-106877534D01*
X144045628Y-106913106D01*
X144055177Y-107015499D01*
X144026608Y-107130944D01*
X143960110Y-107258917D01*
X143883843Y-107364828D01*
X143841991Y-107416045D01*
X143776132Y-107495036D01*
X143688824Y-107598813D01*
X143582619Y-107724391D01*
X143460074Y-107868782D01*
X143323743Y-108029000D01*
X143176182Y-108202059D01*
X143019945Y-108384973D01*
X142857587Y-108574755D01*
X142691663Y-108768418D01*
X142524728Y-108962976D01*
X142359337Y-109155443D01*
X142198046Y-109342832D01*
X142043408Y-109522157D01*
X141897980Y-109690432D01*
X141764315Y-109844669D01*
X141644970Y-109981883D01*
X141640576Y-109986922D01*
X141397083Y-110266164D01*
X141252121Y-110308962D01*
X141033388Y-110394268D01*
X140829891Y-110514806D01*
X140647372Y-110666295D01*
X140491568Y-110844453D01*
X140445365Y-110910854D01*
X140386145Y-111010938D01*
X140344450Y-111107785D01*
X140314835Y-111216659D01*
X140294621Y-111333280D01*
X140299791Y-111425118D01*
X140335973Y-111519304D01*
X140396669Y-111602537D01*
X140446760Y-111644845D01*
X140483989Y-111667277D01*
X140521056Y-111680729D01*
X140568810Y-111686844D01*
X140638102Y-111687263D01*
X140710920Y-111684819D01*
X140855716Y-111670350D01*
X140985951Y-111636809D01*
X141109472Y-111580338D01*
X141234128Y-111497084D01*
X141367768Y-111383189D01*
X141413912Y-111339447D01*
X141553154Y-111192566D01*
X141657250Y-111053552D01*
X141729355Y-110916685D01*
X141772624Y-110776244D01*
X141788385Y-110660571D01*
X141800043Y-110495862D01*
X142338277Y-109868091D01*
X142473191Y-109710659D01*
X142615273Y-109544728D01*
X142758785Y-109377009D01*
X142897988Y-109214212D01*
X143027144Y-109063047D01*
X143140516Y-108930225D01*
X143221195Y-108835575D01*
X143340692Y-108695552D01*
X143476135Y-108537333D01*
X143617602Y-108372477D01*
X143755170Y-108212546D01*
X143878916Y-108069099D01*
X143907123Y-108036481D01*
X144040845Y-107881142D01*
X144150666Y-107751398D01*
X144239970Y-107642724D01*
X144312139Y-107550597D01*
X144370558Y-107470491D01*
X144418608Y-107397881D01*
X144459673Y-107328243D01*
X144497136Y-107257052D01*
X144511137Y-107228640D01*
X144570868Y-107093166D01*
X144608957Y-106971345D01*
X144629419Y-106845842D01*
X144636268Y-106699320D01*
X144636341Y-106687936D01*
X144635894Y-106613978D01*
X144632026Y-106550126D01*
X144622002Y-106492694D01*
X144603087Y-106437999D01*
X144572545Y-106382355D01*
X144527641Y-106322080D01*
X144465640Y-106253487D01*
X144383807Y-106172893D01*
X144279405Y-106076614D01*
X144149701Y-105960965D01*
X143996860Y-105826560D01*
X143901442Y-105743540D01*
X143828651Y-105678225D01*
X143776355Y-105623494D01*
X143742422Y-105572226D01*
X143724719Y-105517299D01*
X143721115Y-105451593D01*
X143729478Y-105367987D01*
X143747676Y-105259359D01*
X143773577Y-105118589D01*
X143777853Y-105095040D01*
X143803532Y-104952749D01*
X143832119Y-104793938D01*
X143860427Y-104636337D01*
X143885267Y-104497677D01*
X143889271Y-104475280D01*
X143913718Y-104340100D01*
X143942508Y-104183478D01*
X143972227Y-104023862D01*
X143999457Y-103879703D01*
X144002135Y-103865680D01*
X144041497Y-103657565D01*
X144081519Y-103441857D01*
X144120288Y-103229091D01*
X144155895Y-103029800D01*
X144186429Y-102854518D01*
X144199298Y-102778560D01*
X144221624Y-102585145D01*
X144221894Y-102408949D01*
X144200481Y-102255874D01*
X144158629Y-102133593D01*
X144078907Y-102005455D01*
X143977215Y-101895385D01*
X143863775Y-101814312D01*
X143856278Y-101810327D01*
X143779738Y-101781227D01*
X143680720Y-101762979D01*
X143555924Y-101755543D01*
X143402047Y-101758880D01*
X143215790Y-101772951D01*
X142993849Y-101797717D01*
X142976600Y-101799887D01*
X142841512Y-101816732D01*
X142709998Y-101832656D01*
X142591214Y-101846587D01*
X142494319Y-101857449D01*
X142428470Y-101864170D01*
X142427960Y-101864217D01*
X142354932Y-101871516D01*
X142253586Y-101882590D01*
X142135915Y-101896082D01*
X142013916Y-101910640D01*
X141980920Y-101914685D01*
X141665005Y-101953445D01*
X141387482Y-101987007D01*
X141146463Y-102015563D01*
X140940058Y-102039302D01*
X140766379Y-102058417D01*
X140623536Y-102073098D01*
X140509642Y-102083536D01*
X140422806Y-102089922D01*
X140361140Y-102092448D01*
X140322756Y-102091303D01*
X140305764Y-102086680D01*
X140304520Y-102084190D01*
X140317637Y-102064693D01*
X140354734Y-102019062D01*
X140412428Y-101951212D01*
X140487340Y-101865059D01*
X140576086Y-101764517D01*
X140675284Y-101653502D01*
X140705840Y-101619559D01*
X140830352Y-101481351D01*
X140973343Y-101322438D01*
X141126196Y-101152406D01*
X141280298Y-100980844D01*
X141427033Y-100817336D01*
X141544594Y-100686197D01*
X141982029Y-100197920D01*
X142174514Y-100185484D01*
X142288824Y-100176905D01*
X142375131Y-100166142D01*
X142446056Y-100149964D01*
X142514223Y-100125141D01*
X142592254Y-100088443D01*
X142631160Y-100068632D01*
X142793080Y-99964217D01*
X142941137Y-99827643D01*
X143067657Y-99666916D01*
X143145357Y-99532171D01*
X143218886Y-99357024D01*
X143268135Y-99183692D01*
X143290147Y-99023197D01*
X143291048Y-98988880D01*
X143282831Y-98889603D01*
X143260550Y-98772827D01*
X143228303Y-98654368D01*
X143190189Y-98550038D01*
X143163187Y-98495533D01*
X143098514Y-98407332D01*
X143012465Y-98319623D01*
X142919270Y-98245682D01*
X142855089Y-98208117D01*
X142716974Y-98162783D01*
X142560820Y-98145656D01*
X142397582Y-98156463D01*
X142238214Y-98194930D01*
X142161359Y-98225384D01*
X142067254Y-98281374D01*
X141963144Y-98364431D01*
X141857766Y-98465561D01*
X141759859Y-98575770D01*
X141678161Y-98686066D01*
X141626865Y-98775520D01*
X141570070Y-98899858D01*
X141530311Y-99001243D01*
X141504636Y-99092106D01*
X141490094Y-99184879D01*
X141483732Y-99291994D01*
X141482563Y-99383222D01*
X141482047Y-99628960D01*
X141075222Y-100076000D01*
X140977197Y-100183819D01*
X140856751Y-100316468D01*
X140718710Y-100468623D01*
X140567900Y-100634961D01*
X140409145Y-100810159D01*
X140247272Y-100988891D01*
X140087106Y-101165836D01*
X139951692Y-101315520D01*
X139812059Y-101469599D01*
X139678630Y-101616221D01*
X139554266Y-101752287D01*
X139441823Y-101874698D01*
X139344160Y-101980354D01*
X139264136Y-102066156D01*
X139204609Y-102129006D01*
X139168437Y-102165803D01*
X139161957Y-102171836D01*
X139108590Y-102211264D01*
X139050838Y-102234501D01*
X138971608Y-102248116D01*
X138960123Y-102249386D01*
X138903266Y-102255698D01*
X138813537Y-102265979D01*
X138698419Y-102279355D01*
X138565390Y-102294956D01*
X138421931Y-102311909D01*
X138333480Y-102322424D01*
X138177498Y-102340647D01*
X138018292Y-102358600D01*
X137865678Y-102375221D01*
X137729475Y-102389451D01*
X137619502Y-102400228D01*
X137582219Y-102403580D01*
X137469103Y-102414740D01*
X137355975Y-102428322D01*
X137257024Y-102442492D01*
X137194192Y-102453728D01*
X136966384Y-102520547D01*
X136746983Y-102621210D01*
X136541019Y-102751381D01*
X136353522Y-102906726D01*
X136189521Y-103082910D01*
X136054045Y-103275599D01*
X135952124Y-103480459D01*
X135928551Y-103544505D01*
X135909836Y-103605446D01*
X135894129Y-103670829D01*
X135881005Y-103745348D01*
X135870034Y-103833700D01*
X135860788Y-103940579D01*
X135852841Y-104070680D01*
X135845763Y-104228700D01*
X135839126Y-104419333D01*
X135834453Y-104576880D01*
X135827370Y-104815003D01*
X135820563Y-105014932D01*
X135813876Y-105179109D01*
X135807150Y-105309979D01*
X135800230Y-105409984D01*
X135792957Y-105481568D01*
X135785176Y-105527175D01*
X135776729Y-105549247D01*
X135771795Y-105552240D01*
X135749282Y-105541267D01*
X135698720Y-105510743D01*
X135625467Y-105464258D01*
X135534880Y-105405405D01*
X135432318Y-105337774D01*
X135323136Y-105264959D01*
X135212694Y-105190549D01*
X135106349Y-105118138D01*
X135009458Y-105051316D01*
X134927379Y-104993675D01*
X134865469Y-104948807D01*
X134829087Y-104920303D01*
X134828951Y-104920184D01*
X134743036Y-104819350D01*
X134691342Y-104701508D01*
X134675052Y-104573319D01*
X134695349Y-104441442D01*
X134728846Y-104356650D01*
X134744120Y-104329961D01*
X134767101Y-104296698D01*
X134799306Y-104255266D01*
X134842253Y-104204068D01*
X134897458Y-104141509D01*
X134966441Y-104065991D01*
X135050719Y-103975919D01*
X135151809Y-103869696D01*
X135271228Y-103745727D01*
X135410496Y-103602415D01*
X135571129Y-103438163D01*
X135754645Y-103251377D01*
X135962562Y-103040458D01*
X136196397Y-102803813D01*
X136422493Y-102575360D01*
X136602685Y-102393295D01*
X136797705Y-102196067D01*
X137001324Y-101989988D01*
X137207311Y-101781370D01*
X137409438Y-101576523D01*
X137601475Y-101381758D01*
X137777193Y-101203386D01*
X137926781Y-101051360D01*
X138606066Y-100360480D01*
X138891413Y-100360480D01*
X139006015Y-100360063D01*
X139089725Y-100357850D01*
X139152289Y-100352404D01*
X139203451Y-100342285D01*
X139252957Y-100326053D01*
X139310554Y-100302270D01*
X139323435Y-100296684D01*
X139533243Y-100185268D01*
X139713803Y-100047411D01*
X139863464Y-99885569D01*
X139980577Y-99702197D01*
X140063492Y-99499750D01*
X140110559Y-99280683D01*
X140121339Y-99109409D01*
X140104166Y-98903720D01*
X140052615Y-98716971D01*
X139967745Y-98551251D01*
X139850618Y-98408649D01*
X139707961Y-98294889D01*
X139531854Y-98204725D01*
X139342276Y-98151805D01*
X139143341Y-98136732D01*
X138939163Y-98160113D01*
X138882120Y-98173500D01*
X138695782Y-98240761D01*
X138519574Y-98343516D01*
X138349412Y-98484194D01*
X138331795Y-98501200D01*
X138247905Y-98587664D01*
X138185909Y-98664228D01*
X138135208Y-98745402D01*
X138094277Y-98826320D01*
X138042935Y-98942128D01*
X138005685Y-99047109D01*
X137981101Y-99150661D01*
X137967757Y-99262178D01*
X137964225Y-99391060D01*
X137969080Y-99546702D01*
X137973320Y-99623040D01*
X137973538Y-99633963D01*
X137971927Y-99645640D01*
X137967092Y-99659529D01*
X137957638Y-99677090D01*
X137942170Y-99699780D01*
X137919293Y-99729060D01*
X137887613Y-99766388D01*
X137845733Y-99813222D01*
X137792259Y-99871023D01*
X137725796Y-99941249D01*
X137644949Y-100025359D01*
X137548324Y-100124812D01*
X137434524Y-100241067D01*
X137302156Y-100375583D01*
X137149824Y-100529818D01*
X136976132Y-100705233D01*
X136779687Y-100903285D01*
X136559093Y-101125434D01*
X136312955Y-101373139D01*
X136039879Y-101647858D01*
X135972138Y-101716000D01*
X135733006Y-101956742D01*
X135500819Y-102190874D01*
X135277292Y-102416647D01*
X135064143Y-102632312D01*
X134863088Y-102836120D01*
X134675843Y-103026322D01*
X134504123Y-103201168D01*
X134349647Y-103358910D01*
X134214129Y-103497798D01*
X134099286Y-103616084D01*
X134006834Y-103712018D01*
X133938490Y-103783851D01*
X133895970Y-103829835D01*
X133882746Y-103845360D01*
X133804582Y-103964395D01*
X133728586Y-104105855D01*
X133662675Y-104253333D01*
X133614765Y-104390419D01*
X133608252Y-104414320D01*
X133589141Y-104521533D01*
X133578310Y-104652561D01*
X133576017Y-104791582D01*
X133582519Y-104922774D01*
X133598076Y-105030316D01*
X133598185Y-105030804D01*
X133641264Y-105163617D01*
X133709330Y-105303601D01*
X133793944Y-105434817D01*
X133846704Y-105499986D01*
X133880805Y-105535909D01*
X133921408Y-105573596D01*
X133971360Y-105614962D01*
X134033508Y-105661923D01*
X134110699Y-105716391D01*
X134205780Y-105780281D01*
X134321598Y-105855508D01*
X134461001Y-105943986D01*
X134626835Y-106047629D01*
X134821948Y-106168352D01*
X135041640Y-106303438D01*
X135188319Y-106393687D01*
X135324800Y-106478137D01*
X135447012Y-106554233D01*
X135550891Y-106619424D01*
X135632367Y-106671157D01*
X135687373Y-106706878D01*
X135711842Y-106724035D01*
X135712000Y-106724178D01*
X135727864Y-106750310D01*
X135736200Y-106797106D01*
X135738029Y-106872554D01*
X135736960Y-106919286D01*
X135733190Y-107034263D01*
X135728111Y-107183938D01*
X135721935Y-107362401D01*
X135714875Y-107563739D01*
X135707143Y-107782040D01*
X135698952Y-108011392D01*
X135690515Y-108245883D01*
X135682043Y-108479600D01*
X135673749Y-108706632D01*
X135665846Y-108921067D01*
X135658546Y-109116992D01*
X135652061Y-109288495D01*
X135648443Y-109382560D01*
X135641674Y-109561010D01*
X135639258Y-109631466D01*
X136537789Y-109631466D01*
X136538782Y-109586395D01*
X136541901Y-109505991D01*
X136546865Y-109395488D01*
X136553394Y-109260123D01*
X136561209Y-109105131D01*
X136570028Y-108935747D01*
X136579572Y-108757207D01*
X136589560Y-108574745D01*
X136599713Y-108393597D01*
X136609750Y-108218999D01*
X136619391Y-108056186D01*
X136628356Y-107910394D01*
X136636365Y-107786856D01*
X136637011Y-107777280D01*
X136643456Y-107680533D01*
X136650054Y-107578090D01*
X136656969Y-107467056D01*
X136664364Y-107344538D01*
X136672400Y-107207641D01*
X136681241Y-107053471D01*
X136691049Y-106879133D01*
X136701988Y-106681732D01*
X136714220Y-106458375D01*
X136727907Y-106206168D01*
X136743213Y-105922214D01*
X136760300Y-105603622D01*
X136779332Y-105247495D01*
X136780419Y-105227120D01*
X136795747Y-104939120D01*
X136809041Y-104688898D01*
X136820537Y-104473658D01*
X136830471Y-104290599D01*
X136839081Y-104136926D01*
X136846602Y-104009841D01*
X136853272Y-103906544D01*
X136859327Y-103824239D01*
X136865004Y-103760128D01*
X136870539Y-103711412D01*
X136876170Y-103675294D01*
X136882132Y-103648976D01*
X136888662Y-103629661D01*
X136895997Y-103614549D01*
X136904374Y-103600844D01*
X136914030Y-103585748D01*
X136920100Y-103575613D01*
X136961354Y-103511402D01*
X137006790Y-103459181D01*
X137061723Y-103416727D01*
X137131467Y-103381820D01*
X137221336Y-103352237D01*
X137336644Y-103325757D01*
X137482705Y-103300159D01*
X137632440Y-103277799D01*
X137793872Y-103255003D01*
X137919541Y-103237892D01*
X138013880Y-103226163D01*
X138081322Y-103219513D01*
X138126301Y-103217641D01*
X138153248Y-103220242D01*
X138166599Y-103227015D01*
X138170785Y-103237656D01*
X138170920Y-103241025D01*
X138158626Y-103265416D01*
X138124942Y-103314333D01*
X138074667Y-103381226D01*
X138012596Y-103459544D01*
X137996089Y-103479785D01*
X137902696Y-103595823D01*
X137831214Y-103691203D01*
X137776130Y-103775261D01*
X137731927Y-103857328D01*
X137693093Y-103946739D01*
X137654112Y-104052826D01*
X137649303Y-104066713D01*
X137616131Y-104168812D01*
X137595869Y-104251096D01*
X137588436Y-104308450D01*
X138475736Y-104308450D01*
X138483079Y-104223636D01*
X138507077Y-104138912D01*
X138550719Y-104049073D01*
X138616997Y-103948918D01*
X138708900Y-103833245D01*
X138823692Y-103703120D01*
X138916896Y-103600538D01*
X139015680Y-103491084D01*
X139110279Y-103385623D01*
X139190930Y-103295019D01*
X139216332Y-103266240D01*
X139282071Y-103192589D01*
X139340579Y-103129009D01*
X139385299Y-103082500D01*
X139409067Y-103060485D01*
X139446489Y-103045238D01*
X139508054Y-103030845D01*
X139552680Y-103023989D01*
X139604025Y-103017412D01*
X139688571Y-103006209D01*
X139799262Y-102991333D01*
X139929044Y-102973735D01*
X140070862Y-102954366D01*
X140172440Y-102940412D01*
X140348939Y-102916159D01*
X140550906Y-102888490D01*
X140763533Y-102859430D01*
X140972014Y-102831002D01*
X141161542Y-102805228D01*
X141208760Y-102798822D01*
X141369671Y-102776824D01*
X141534494Y-102753971D01*
X141693614Y-102731620D01*
X141837417Y-102711125D01*
X141956290Y-102693843D01*
X142011400Y-102685617D01*
X142127430Y-102668381D01*
X142262108Y-102648947D01*
X142409528Y-102628112D01*
X142563784Y-102606673D01*
X142718969Y-102585427D01*
X142869177Y-102565169D01*
X143008503Y-102546697D01*
X143131039Y-102530809D01*
X143230879Y-102518299D01*
X143302118Y-102509965D01*
X143338289Y-102506626D01*
X143398912Y-102514512D01*
X143452266Y-102533762D01*
X143497155Y-102568496D01*
X143532306Y-102625338D01*
X143563136Y-102713244D01*
X143565162Y-102720398D01*
X143565396Y-102753256D01*
X143558848Y-102819082D01*
X143546461Y-102910943D01*
X143529178Y-103021908D01*
X143507943Y-103145045D01*
X143505726Y-103157278D01*
X143479923Y-103299040D01*
X143453163Y-103446032D01*
X143427611Y-103586364D01*
X143405431Y-103708144D01*
X143391538Y-103784400D01*
X143370797Y-103901572D01*
X143349533Y-104027281D01*
X143330844Y-104142979D01*
X143321993Y-104200960D01*
X143309830Y-104279216D01*
X143292107Y-104387618D01*
X143270478Y-104516323D01*
X143246599Y-104655483D01*
X143222125Y-104795252D01*
X143221214Y-104800400D01*
X143179290Y-105037670D01*
X143137747Y-105274095D01*
X143097355Y-105505201D01*
X143058886Y-105726516D01*
X143023111Y-105933564D01*
X142990801Y-106121870D01*
X142962728Y-106286962D01*
X142939662Y-106424364D01*
X142922374Y-106529603D01*
X142913633Y-106584941D01*
X142898464Y-106679877D01*
X142882928Y-106770038D01*
X142869627Y-106840554D01*
X142865665Y-106859261D01*
X142855270Y-106912048D01*
X142840792Y-106994074D01*
X142824100Y-107094376D01*
X142807067Y-107201992D01*
X142806093Y-107208320D01*
X142774094Y-107404312D01*
X142741532Y-107580466D01*
X142709334Y-107732761D01*
X142678425Y-107857172D01*
X142649734Y-107949677D01*
X142624185Y-108006251D01*
X142621441Y-108010341D01*
X142574873Y-108064356D01*
X142523671Y-108109208D01*
X142478955Y-108134148D01*
X142410446Y-108164473D01*
X142325598Y-108197723D01*
X142231863Y-108231439D01*
X142136696Y-108263162D01*
X142047549Y-108290432D01*
X141971876Y-108310792D01*
X141917131Y-108321781D01*
X141890766Y-108320940D01*
X141889480Y-108318444D01*
X141899605Y-108294419D01*
X141925817Y-108247740D01*
X141953391Y-108202899D01*
X142065089Y-108008943D01*
X142143956Y-107827610D01*
X142192481Y-107651422D01*
X142213157Y-107472904D01*
X142214299Y-107419846D01*
X142211730Y-107329265D01*
X142200827Y-107260259D01*
X142177428Y-107193980D01*
X142153024Y-107142389D01*
X142125845Y-107092149D01*
X142094938Y-107045933D01*
X142055730Y-106999358D01*
X142003645Y-106948039D01*
X141934109Y-106887592D01*
X141842548Y-106813633D01*
X141724385Y-106721779D01*
X141673010Y-106682381D01*
X141594139Y-106619994D01*
X141527727Y-106563599D01*
X141480307Y-106519020D01*
X141458409Y-106492081D01*
X141457856Y-106490511D01*
X141458160Y-106461247D01*
X141463889Y-106398021D01*
X141474308Y-106307043D01*
X141488683Y-106194522D01*
X141506279Y-106066667D01*
X141516003Y-105999280D01*
X141538864Y-105843236D01*
X141563043Y-105678148D01*
X141586787Y-105515990D01*
X141608343Y-105368736D01*
X141625958Y-105248362D01*
X141627628Y-105236945D01*
X141647032Y-105093597D01*
X141657580Y-104982887D01*
X141658887Y-104897707D01*
X141650566Y-104830946D01*
X141632231Y-104775494D01*
X141603494Y-104724244D01*
X141599425Y-104718180D01*
X141557158Y-104662368D01*
X141512075Y-104619135D01*
X141459701Y-104588123D01*
X141395563Y-104568976D01*
X141315185Y-104561337D01*
X141214094Y-104564851D01*
X141087815Y-104579162D01*
X140931873Y-104603911D01*
X140741794Y-104638745D01*
X140700760Y-104646607D01*
X140550901Y-104675464D01*
X140401346Y-104704262D01*
X140260953Y-104731296D01*
X140138576Y-104754861D01*
X140043072Y-104773251D01*
X140009880Y-104779642D01*
X139893630Y-104801450D01*
X139763865Y-104824905D01*
X139643834Y-104845826D01*
X139613640Y-104850910D01*
X139495405Y-104875749D01*
X139380779Y-104908781D01*
X139291318Y-104943326D01*
X139225065Y-104973284D01*
X139173530Y-104994862D01*
X139147439Y-105003582D01*
X139147030Y-105003600D01*
X139124822Y-104992229D01*
X139077031Y-104961414D01*
X139010580Y-104916106D01*
X138932391Y-104861255D01*
X138849385Y-104801810D01*
X138768487Y-104742722D01*
X138696617Y-104688941D01*
X138640698Y-104645416D01*
X138611019Y-104620311D01*
X138529884Y-104518635D01*
X138484880Y-104399225D01*
X138475736Y-104308450D01*
X137588436Y-104308450D01*
X137585495Y-104331140D01*
X137581986Y-104426516D01*
X137581821Y-104459040D01*
X137591892Y-104661775D01*
X137623712Y-104835027D01*
X137679084Y-104984721D01*
X137759810Y-105116783D01*
X137795448Y-105161178D01*
X137833408Y-105197130D01*
X137899745Y-105251030D01*
X137988793Y-105318634D01*
X138094886Y-105395695D01*
X138212355Y-105477968D01*
X138278618Y-105523131D01*
X138394607Y-105601998D01*
X138500532Y-105675138D01*
X138591313Y-105738953D01*
X138661871Y-105789847D01*
X138707127Y-105824222D01*
X138720816Y-105836281D01*
X138736597Y-105862089D01*
X138743750Y-105899736D01*
X138743070Y-105959115D01*
X138736816Y-106035215D01*
X138727615Y-106132949D01*
X138718521Y-106233719D01*
X138711479Y-106315970D01*
X138711388Y-106317085D01*
X138705743Y-106381009D01*
X138696940Y-106474249D01*
X138686053Y-106585703D01*
X138674155Y-106704268D01*
X138670405Y-106740960D01*
X138663890Y-106810452D01*
X139464265Y-106810452D01*
X139464525Y-106744937D01*
X139470121Y-106644501D01*
X139480851Y-106511797D01*
X139496509Y-106349482D01*
X139516893Y-106160210D01*
X139531074Y-106036794D01*
X139550927Y-105885648D01*
X139571411Y-105770445D01*
X139593992Y-105686494D01*
X139620132Y-105629108D01*
X139651296Y-105593597D01*
X139673524Y-105580620D01*
X139701338Y-105572982D01*
X139763317Y-105558483D01*
X139853803Y-105538363D01*
X139967137Y-105513863D01*
X140097661Y-105486224D01*
X140223240Y-105460086D01*
X140413182Y-105421474D01*
X140566696Y-105391720D01*
X140686909Y-105370354D01*
X140776947Y-105356904D01*
X140839935Y-105350900D01*
X140879002Y-105351871D01*
X140896611Y-105358625D01*
X140898171Y-105381738D01*
X140893984Y-105434963D01*
X140884933Y-105508319D01*
X140880852Y-105536425D01*
X140869871Y-105614033D01*
X140855704Y-105721123D01*
X140839743Y-105846796D01*
X140823381Y-105980151D01*
X140812649Y-106070400D01*
X140794499Y-106223106D01*
X140779213Y-106340444D01*
X140765054Y-106427428D01*
X140750282Y-106489070D01*
X140733161Y-106530380D01*
X140711951Y-106556372D01*
X140684915Y-106572056D01*
X140650315Y-106582446D01*
X140633735Y-106586294D01*
X140588179Y-106596764D01*
X140509511Y-106615011D01*
X140404181Y-106639532D01*
X140278645Y-106668822D01*
X140139354Y-106701378D01*
X140011805Y-106731234D01*
X139871240Y-106763443D01*
X139743641Y-106791309D01*
X139634335Y-106813781D01*
X139548651Y-106829804D01*
X139491917Y-106838325D01*
X139469545Y-106838390D01*
X139464265Y-106810452D01*
X138663890Y-106810452D01*
X138652171Y-106935447D01*
X138641418Y-107093970D01*
X138638222Y-107220526D01*
X138642660Y-107319111D01*
X138654807Y-107393721D01*
X138674739Y-107448353D01*
X138684164Y-107464396D01*
X138762182Y-107546267D01*
X138866903Y-107598660D01*
X138996716Y-107621252D01*
X139150014Y-107613723D01*
X139289772Y-107585458D01*
X139489161Y-107533663D01*
X139690387Y-107481778D01*
X139889278Y-107430848D01*
X140081661Y-107381920D01*
X140263362Y-107336040D01*
X140430210Y-107294253D01*
X140578031Y-107257604D01*
X140702653Y-107227140D01*
X140799902Y-107203906D01*
X140865607Y-107188948D01*
X140893800Y-107183488D01*
X140924485Y-107182341D01*
X140956712Y-107189138D01*
X140996739Y-107207227D01*
X141050824Y-107239959D01*
X141125226Y-107290684D01*
X141218920Y-107357503D01*
X141318189Y-107431565D01*
X141403463Y-107500161D01*
X141468572Y-107558045D01*
X141507349Y-107599970D01*
X141511866Y-107606754D01*
X141546629Y-107700213D01*
X141545106Y-107802818D01*
X141507022Y-107917813D01*
X141481386Y-107968194D01*
X141441387Y-108030535D01*
X141381206Y-108112110D01*
X141307112Y-108205578D01*
X141225375Y-108303603D01*
X141142264Y-108398845D01*
X141064049Y-108483968D01*
X140997001Y-108551631D01*
X140947387Y-108594498D01*
X140944600Y-108596470D01*
X140909451Y-108613163D01*
X140841040Y-108639074D01*
X140745211Y-108672359D01*
X140627808Y-108711175D01*
X140494674Y-108753676D01*
X140351653Y-108798018D01*
X140204587Y-108842357D01*
X140059322Y-108884848D01*
X139921700Y-108923647D01*
X139827000Y-108949217D01*
X139731347Y-108975798D01*
X139622291Y-109008099D01*
X139532360Y-109036278D01*
X139474952Y-109054282D01*
X139383098Y-109082255D01*
X139261384Y-109118849D01*
X139114395Y-109162713D01*
X138946719Y-109212498D01*
X138762941Y-109266856D01*
X138567646Y-109324435D01*
X138365421Y-109383888D01*
X138160851Y-109443864D01*
X137958523Y-109503014D01*
X137763023Y-109559988D01*
X137578936Y-109613438D01*
X137410848Y-109662014D01*
X137263346Y-109704366D01*
X137215880Y-109717911D01*
X137071039Y-109758781D01*
X136959565Y-109789086D01*
X136875901Y-109809951D01*
X136814491Y-109822501D01*
X136769779Y-109827862D01*
X136736209Y-109827160D01*
X136708224Y-109821520D01*
X136706663Y-109821068D01*
X136624079Y-109780880D01*
X136565606Y-109720087D01*
X136538720Y-109647081D01*
X136537789Y-109631466D01*
X135639258Y-109631466D01*
X135636776Y-109703832D01*
X135633824Y-109815999D01*
X135632892Y-109902483D01*
X135634052Y-109968257D01*
X135637380Y-110018293D01*
X135642948Y-110057564D01*
X135650831Y-110091043D01*
X135659371Y-110118556D01*
X135724151Y-110250272D01*
X135822407Y-110362283D01*
X135950835Y-110452169D01*
X136106131Y-110517507D01*
X136249366Y-110550779D01*
X136327413Y-110560916D01*
X136403770Y-110564954D01*
X136483697Y-110561931D01*
X136572454Y-110550886D01*
X136675305Y-110530858D01*
X136797508Y-110500885D01*
X136944326Y-110460007D01*
X137121020Y-110407263D01*
X137246360Y-110368654D01*
X137392361Y-110323385D01*
X137562873Y-110270623D01*
X137743558Y-110214796D01*
X137920074Y-110160336D01*
X138069320Y-110114370D01*
X138190162Y-110077044D01*
X138342220Y-110029840D01*
X138517952Y-109975110D01*
X138709820Y-109915210D01*
X138910282Y-109852494D01*
X139111800Y-109789315D01*
X139306832Y-109728027D01*
X139310149Y-109726983D01*
X139483061Y-109672674D01*
X139643881Y-109622361D01*
X139788489Y-109577317D01*
X139912763Y-109538817D01*
X140012584Y-109508136D01*
X140083829Y-109486549D01*
X140122378Y-109475329D01*
X140128029Y-109474001D01*
X140139567Y-109479079D01*
X140136382Y-109496411D01*
X140116119Y-109529146D01*
X140076419Y-109580428D01*
X140014926Y-109653406D01*
X139929283Y-109751226D01*
X139872720Y-109814864D01*
X139797557Y-109899129D01*
X139700219Y-110008254D01*
X139585581Y-110136769D01*
X139458522Y-110279207D01*
X139323918Y-110430101D01*
X139186648Y-110583982D01*
X139051589Y-110735383D01*
X139036573Y-110752215D01*
X138914068Y-110888812D01*
X138798637Y-111016126D01*
X138693336Y-111130887D01*
X138601223Y-111229825D01*
X138525354Y-111309672D01*
X138468785Y-111367158D01*
X138434573Y-111399014D01*
X138426973Y-111404247D01*
X138388820Y-111417562D01*
X138323433Y-111438980D01*
X138242440Y-111464720D01*
X138207438Y-111475640D01*
X138032883Y-111545791D01*
X137858373Y-111645198D01*
X137691752Y-111767321D01*
X137540868Y-111905622D01*
X137413565Y-112053561D01*
X137317689Y-112204598D01*
X137306933Y-112226217D01*
X137267006Y-112314507D01*
X137243358Y-112383738D01*
X137231847Y-112449987D01*
X137228333Y-112529334D01*
X137228313Y-112531467D01*
X137234515Y-112645773D01*
X137259367Y-112731381D01*
X137308766Y-112798180D01*
X137388607Y-112856058D01*
X137437714Y-112882681D01*
X137539590Y-112926132D01*
X137635458Y-112946092D01*
X137737836Y-112943275D01*
X137737836Y-112943275D01*
G37*
X137737836Y-112943275D02*
X137859243Y-112918397D01*
X137894227Y-112908759D01*
X138135795Y-112819783D01*
X138359122Y-112697497D01*
X138559736Y-112545071D01*
X138733167Y-112365672D01*
X138816431Y-112255073D01*
X138896220Y-112121110D01*
X138944982Y-111992760D01*
X138967218Y-111855898D01*
X138969780Y-111773699D01*
X138968998Y-111604518D01*
X139175792Y-111377459D01*
X139230804Y-111316591D01*
X139309304Y-111229066D01*
X139407903Y-111118712D01*
X139523209Y-110989351D01*
X139651831Y-110844809D01*
X139790378Y-110688912D01*
X139935459Y-110525484D01*
X140083683Y-110358350D01*
X140231660Y-110191336D01*
X140375997Y-110028265D01*
X140513305Y-109872963D01*
X140640191Y-109729256D01*
X140753266Y-109600967D01*
X140849138Y-109491923D01*
X140924415Y-109405947D01*
X140964920Y-109359367D01*
X141029474Y-109287427D01*
X141090177Y-109224492D01*
X141138792Y-109178865D01*
X141160799Y-109161926D01*
X141197753Y-109145007D01*
X141265906Y-109119181D01*
X141357522Y-109087176D01*
X141464863Y-109051720D01*
X141546879Y-109025793D01*
X141751891Y-108962058D01*
X141922228Y-108908664D01*
X142062090Y-108864114D01*
X142175681Y-108826911D01*
X142267203Y-108795558D01*
X142340857Y-108768558D01*
X142400846Y-108744415D01*
X142451371Y-108721631D01*
X142496635Y-108698710D01*
X142540841Y-108674154D01*
X142551791Y-108667833D01*
X142662823Y-108592765D01*
X142782839Y-108493867D01*
X142901824Y-108380926D01*
X143009766Y-108263730D01*
X143096650Y-108152068D01*
X143126045Y-108106511D01*
X143164228Y-108039341D01*
X143198086Y-107972025D01*
X143228758Y-107900275D01*
X143257382Y-107819800D01*
X143285096Y-107726314D01*
X143313041Y-107615526D01*
X143342353Y-107483148D01*
X143374172Y-107324892D01*
X143409635Y-107136468D01*
X143449883Y-106913587D01*
X143464293Y-106832400D01*
X143488360Y-106693552D01*
X143507452Y-106591738D01*
X143525883Y-106524428D01*
X143547961Y-106489092D01*
X143577999Y-106483198D01*
X143620309Y-106504216D01*
X143679200Y-106549616D01*
X143758985Y-106616868D01*
X143788822Y-106641912D01*
X143885841Y-106724466D01*
X143955189Y-106787823D01*
X144001741Y-106837131D01*
X144030369Y-106877534D01*
X144045628Y-106913106D01*
X144055177Y-107015499D01*
X144026608Y-107130944D01*
X143960110Y-107258917D01*
X143883843Y-107364828D01*
X143841991Y-107416045D01*
X143776132Y-107495036D01*
X143688824Y-107598813D01*
X143582619Y-107724391D01*
X143460074Y-107868782D01*
X143323743Y-108029000D01*
X143176182Y-108202059D01*
X143019945Y-108384973D01*
X142857587Y-108574755D01*
X142691663Y-108768418D01*
X142524728Y-108962976D01*
X142359337Y-109155443D01*
X142198046Y-109342832D01*
X142043408Y-109522157D01*
X141897980Y-109690432D01*
X141764315Y-109844669D01*
X141644970Y-109981883D01*
X141640576Y-109986922D01*
X141397083Y-110266164D01*
X141252121Y-110308962D01*
X141033388Y-110394268D01*
X140829891Y-110514806D01*
X140647372Y-110666295D01*
X140491568Y-110844453D01*
X140445365Y-110910854D01*
X140386145Y-111010938D01*
X140344450Y-111107785D01*
X140314835Y-111216659D01*
X140294621Y-111333280D01*
X140299791Y-111425118D01*
X140335973Y-111519304D01*
X140396669Y-111602537D01*
X140446760Y-111644845D01*
X140483989Y-111667277D01*
X140521056Y-111680729D01*
X140568810Y-111686844D01*
X140638102Y-111687263D01*
X140710920Y-111684819D01*
X140855716Y-111670350D01*
X140985951Y-111636809D01*
X141109472Y-111580338D01*
X141234128Y-111497084D01*
X141367768Y-111383189D01*
X141413912Y-111339447D01*
X141553154Y-111192566D01*
X141657250Y-111053552D01*
X141729355Y-110916685D01*
X141772624Y-110776244D01*
X141788385Y-110660571D01*
X141800043Y-110495862D01*
X142338277Y-109868091D01*
X142473191Y-109710659D01*
X142615273Y-109544728D01*
X142758785Y-109377009D01*
X142897988Y-109214212D01*
X143027144Y-109063047D01*
X143140516Y-108930225D01*
X143221195Y-108835575D01*
X143340692Y-108695552D01*
X143476135Y-108537333D01*
X143617602Y-108372477D01*
X143755170Y-108212546D01*
X143878916Y-108069099D01*
X143907123Y-108036481D01*
X144040845Y-107881142D01*
X144150666Y-107751398D01*
X144239970Y-107642724D01*
X144312139Y-107550597D01*
X144370558Y-107470491D01*
X144418608Y-107397881D01*
X144459673Y-107328243D01*
X144497136Y-107257052D01*
X144511137Y-107228640D01*
X144570868Y-107093166D01*
X144608957Y-106971345D01*
X144629419Y-106845842D01*
X144636268Y-106699320D01*
X144636341Y-106687936D01*
X144635894Y-106613978D01*
X144632026Y-106550126D01*
X144622002Y-106492694D01*
X144603087Y-106437999D01*
X144572545Y-106382355D01*
X144527641Y-106322080D01*
X144465640Y-106253487D01*
X144383807Y-106172893D01*
X144279405Y-106076614D01*
X144149701Y-105960965D01*
X143996860Y-105826560D01*
X143901442Y-105743540D01*
X143828651Y-105678225D01*
X143776355Y-105623494D01*
X143742422Y-105572226D01*
X143724719Y-105517299D01*
X143721115Y-105451593D01*
X143729478Y-105367987D01*
X143747676Y-105259359D01*
X143773577Y-105118589D01*
X143777853Y-105095040D01*
X143803532Y-104952749D01*
X143832119Y-104793938D01*
X143860427Y-104636337D01*
X143885267Y-104497677D01*
X143889271Y-104475280D01*
X143913718Y-104340100D01*
X143942508Y-104183478D01*
X143972227Y-104023862D01*
X143999457Y-103879703D01*
X144002135Y-103865680D01*
X144041497Y-103657565D01*
X144081519Y-103441857D01*
X144120288Y-103229091D01*
X144155895Y-103029800D01*
X144186429Y-102854518D01*
X144199298Y-102778560D01*
X144221624Y-102585145D01*
X144221894Y-102408949D01*
X144200481Y-102255874D01*
X144158629Y-102133593D01*
X144078907Y-102005455D01*
X143977215Y-101895385D01*
X143863775Y-101814312D01*
X143856278Y-101810327D01*
X143779738Y-101781227D01*
X143680720Y-101762979D01*
X143555924Y-101755543D01*
X143402047Y-101758880D01*
X143215790Y-101772951D01*
X142993849Y-101797717D01*
X142976600Y-101799887D01*
X142841512Y-101816732D01*
X142709998Y-101832656D01*
X142591214Y-101846587D01*
X142494319Y-101857449D01*
X142428470Y-101864170D01*
X142427960Y-101864217D01*
X142354932Y-101871516D01*
X142253586Y-101882590D01*
X142135915Y-101896082D01*
X142013916Y-101910640D01*
X141980920Y-101914685D01*
X141665005Y-101953445D01*
X141387482Y-101987007D01*
X141146463Y-102015563D01*
X140940058Y-102039302D01*
X140766379Y-102058417D01*
X140623536Y-102073098D01*
X140509642Y-102083536D01*
X140422806Y-102089922D01*
X140361140Y-102092448D01*
X140322756Y-102091303D01*
X140305764Y-102086680D01*
X140304520Y-102084190D01*
X140317637Y-102064693D01*
X140354734Y-102019062D01*
X140412428Y-101951212D01*
X140487340Y-101865059D01*
X140576086Y-101764517D01*
X140675284Y-101653502D01*
X140705840Y-101619559D01*
X140830352Y-101481351D01*
X140973343Y-101322438D01*
X141126196Y-101152406D01*
X141280298Y-100980844D01*
X141427033Y-100817336D01*
X141544594Y-100686197D01*
X141982029Y-100197920D01*
X142174514Y-100185484D01*
X142288824Y-100176905D01*
X142375131Y-100166142D01*
X142446056Y-100149964D01*
X142514223Y-100125141D01*
X142592254Y-100088443D01*
X142631160Y-100068632D01*
X142793080Y-99964217D01*
X142941137Y-99827643D01*
X143067657Y-99666916D01*
X143145357Y-99532171D01*
X143218886Y-99357024D01*
X143268135Y-99183692D01*
X143290147Y-99023197D01*
X143291048Y-98988880D01*
X143282831Y-98889603D01*
X143260550Y-98772827D01*
X143228303Y-98654368D01*
X143190189Y-98550038D01*
X143163187Y-98495533D01*
X143098514Y-98407332D01*
X143012465Y-98319623D01*
X142919270Y-98245682D01*
X142855089Y-98208117D01*
X142716974Y-98162783D01*
X142560820Y-98145656D01*
X142397582Y-98156463D01*
X142238214Y-98194930D01*
X142161359Y-98225384D01*
X142067254Y-98281374D01*
X141963144Y-98364431D01*
X141857766Y-98465561D01*
X141759859Y-98575770D01*
X141678161Y-98686066D01*
X141626865Y-98775520D01*
X141570070Y-98899858D01*
X141530311Y-99001243D01*
X141504636Y-99092106D01*
X141490094Y-99184879D01*
X141483732Y-99291994D01*
X141482563Y-99383222D01*
X141482047Y-99628960D01*
X141075222Y-100076000D01*
X140977197Y-100183819D01*
X140856751Y-100316468D01*
X140718710Y-100468623D01*
X140567900Y-100634961D01*
X140409145Y-100810159D01*
X140247272Y-100988891D01*
X140087106Y-101165836D01*
X139951692Y-101315520D01*
X139812059Y-101469599D01*
X139678630Y-101616221D01*
X139554266Y-101752287D01*
X139441823Y-101874698D01*
X139344160Y-101980354D01*
X139264136Y-102066156D01*
X139204609Y-102129006D01*
X139168437Y-102165803D01*
X139161957Y-102171836D01*
X139108590Y-102211264D01*
X139050838Y-102234501D01*
X138971608Y-102248116D01*
X138960123Y-102249386D01*
X138903266Y-102255698D01*
X138813537Y-102265979D01*
X138698419Y-102279355D01*
X138565390Y-102294956D01*
X138421931Y-102311909D01*
X138333480Y-102322424D01*
X138177498Y-102340647D01*
X138018292Y-102358600D01*
X137865678Y-102375221D01*
X137729475Y-102389451D01*
X137619502Y-102400228D01*
X137582219Y-102403580D01*
X137469103Y-102414740D01*
X137355975Y-102428322D01*
X137257024Y-102442492D01*
X137194192Y-102453728D01*
X136966384Y-102520547D01*
X136746983Y-102621210D01*
X136541019Y-102751381D01*
X136353522Y-102906726D01*
X136189521Y-103082910D01*
X136054045Y-103275599D01*
X135952124Y-103480459D01*
X135928551Y-103544505D01*
X135909836Y-103605446D01*
X135894129Y-103670829D01*
X135881005Y-103745348D01*
X135870034Y-103833700D01*
X135860788Y-103940579D01*
X135852841Y-104070680D01*
X135845763Y-104228700D01*
X135839126Y-104419333D01*
X135834453Y-104576880D01*
X135827370Y-104815003D01*
X135820563Y-105014932D01*
X135813876Y-105179109D01*
X135807150Y-105309979D01*
X135800230Y-105409984D01*
X135792957Y-105481568D01*
X135785176Y-105527175D01*
X135776729Y-105549247D01*
X135771795Y-105552240D01*
X135749282Y-105541267D01*
X135698720Y-105510743D01*
X135625467Y-105464258D01*
X135534880Y-105405405D01*
X135432318Y-105337774D01*
X135323136Y-105264959D01*
X135212694Y-105190549D01*
X135106349Y-105118138D01*
X135009458Y-105051316D01*
X134927379Y-104993675D01*
X134865469Y-104948807D01*
X134829087Y-104920303D01*
X134828951Y-104920184D01*
X134743036Y-104819350D01*
X134691342Y-104701508D01*
X134675052Y-104573319D01*
X134695349Y-104441442D01*
X134728846Y-104356650D01*
X134744120Y-104329961D01*
X134767101Y-104296698D01*
X134799306Y-104255266D01*
X134842253Y-104204068D01*
X134897458Y-104141509D01*
X134966441Y-104065991D01*
X135050719Y-103975919D01*
X135151809Y-103869696D01*
X135271228Y-103745727D01*
X135410496Y-103602415D01*
X135571129Y-103438163D01*
X135754645Y-103251377D01*
X135962562Y-103040458D01*
X136196397Y-102803813D01*
X136422493Y-102575360D01*
X136602685Y-102393295D01*
X136797705Y-102196067D01*
X137001324Y-101989988D01*
X137207311Y-101781370D01*
X137409438Y-101576523D01*
X137601475Y-101381758D01*
X137777193Y-101203386D01*
X137926781Y-101051360D01*
X138606066Y-100360480D01*
X138891413Y-100360480D01*
X139006015Y-100360063D01*
X139089725Y-100357850D01*
X139152289Y-100352404D01*
X139203451Y-100342285D01*
X139252957Y-100326053D01*
X139310554Y-100302270D01*
X139323435Y-100296684D01*
X139533243Y-100185268D01*
X139713803Y-100047411D01*
X139863464Y-99885569D01*
X139980577Y-99702197D01*
X140063492Y-99499750D01*
X140110559Y-99280683D01*
X140121339Y-99109409D01*
X140104166Y-98903720D01*
X140052615Y-98716971D01*
X139967745Y-98551251D01*
X139850618Y-98408649D01*
X139707961Y-98294889D01*
X139531854Y-98204725D01*
X139342276Y-98151805D01*
X139143341Y-98136732D01*
X138939163Y-98160113D01*
X138882120Y-98173500D01*
X138695782Y-98240761D01*
X138519574Y-98343516D01*
X138349412Y-98484194D01*
X138331795Y-98501200D01*
X138247905Y-98587664D01*
X138185909Y-98664228D01*
X138135208Y-98745402D01*
X138094277Y-98826320D01*
X138042935Y-98942128D01*
X138005685Y-99047109D01*
X137981101Y-99150661D01*
X137967757Y-99262178D01*
X137964225Y-99391060D01*
X137969080Y-99546702D01*
X137973320Y-99623040D01*
X137973538Y-99633963D01*
X137971927Y-99645640D01*
X137967092Y-99659529D01*
X137957638Y-99677090D01*
X137942170Y-99699780D01*
X137919293Y-99729060D01*
X137887613Y-99766388D01*
X137845733Y-99813222D01*
X137792259Y-99871023D01*
X137725796Y-99941249D01*
X137644949Y-100025359D01*
X137548324Y-100124812D01*
X137434524Y-100241067D01*
X137302156Y-100375583D01*
X137149824Y-100529818D01*
X136976132Y-100705233D01*
X136779687Y-100903285D01*
X136559093Y-101125434D01*
X136312955Y-101373139D01*
X136039879Y-101647858D01*
X135972138Y-101716000D01*
X135733006Y-101956742D01*
X135500819Y-102190874D01*
X135277292Y-102416647D01*
X135064143Y-102632312D01*
X134863088Y-102836120D01*
X134675843Y-103026322D01*
X134504123Y-103201168D01*
X134349647Y-103358910D01*
X134214129Y-103497798D01*
X134099286Y-103616084D01*
X134006834Y-103712018D01*
X133938490Y-103783851D01*
X133895970Y-103829835D01*
X133882746Y-103845360D01*
X133804582Y-103964395D01*
X133728586Y-104105855D01*
X133662675Y-104253333D01*
X133614765Y-104390419D01*
X133608252Y-104414320D01*
X133589141Y-104521533D01*
X133578310Y-104652561D01*
X133576017Y-104791582D01*
X133582519Y-104922774D01*
X133598076Y-105030316D01*
X133598185Y-105030804D01*
X133641264Y-105163617D01*
X133709330Y-105303601D01*
X133793944Y-105434817D01*
X133846704Y-105499986D01*
X133880805Y-105535909D01*
X133921408Y-105573596D01*
X133971360Y-105614962D01*
X134033508Y-105661923D01*
X134110699Y-105716391D01*
X134205780Y-105780281D01*
X134321598Y-105855508D01*
X134461001Y-105943986D01*
X134626835Y-106047629D01*
X134821948Y-106168352D01*
X135041640Y-106303438D01*
X135188319Y-106393687D01*
X135324800Y-106478137D01*
X135447012Y-106554233D01*
X135550891Y-106619424D01*
X135632367Y-106671157D01*
X135687373Y-106706878D01*
X135711842Y-106724035D01*
X135712000Y-106724178D01*
X135727864Y-106750310D01*
X135736200Y-106797106D01*
X135738029Y-106872554D01*
X135736960Y-106919286D01*
X135733190Y-107034263D01*
X135728111Y-107183938D01*
X135721935Y-107362401D01*
X135714875Y-107563739D01*
X135707143Y-107782040D01*
X135698952Y-108011392D01*
X135690515Y-108245883D01*
X135682043Y-108479600D01*
X135673749Y-108706632D01*
X135665846Y-108921067D01*
X135658546Y-109116992D01*
X135652061Y-109288495D01*
X135648443Y-109382560D01*
X135641674Y-109561010D01*
X135639258Y-109631466D01*
X136537789Y-109631466D01*
X136538782Y-109586395D01*
X136541901Y-109505991D01*
X136546865Y-109395488D01*
X136553394Y-109260123D01*
X136561209Y-109105131D01*
X136570028Y-108935747D01*
X136579572Y-108757207D01*
X136589560Y-108574745D01*
X136599713Y-108393597D01*
X136609750Y-108218999D01*
X136619391Y-108056186D01*
X136628356Y-107910394D01*
X136636365Y-107786856D01*
X136637011Y-107777280D01*
X136643456Y-107680533D01*
X136650054Y-107578090D01*
X136656969Y-107467056D01*
X136664364Y-107344538D01*
X136672400Y-107207641D01*
X136681241Y-107053471D01*
X136691049Y-106879133D01*
X136701988Y-106681732D01*
X136714220Y-106458375D01*
X136727907Y-106206168D01*
X136743213Y-105922214D01*
X136760300Y-105603622D01*
X136779332Y-105247495D01*
X136780419Y-105227120D01*
X136795747Y-104939120D01*
X136809041Y-104688898D01*
X136820537Y-104473658D01*
X136830471Y-104290599D01*
X136839081Y-104136926D01*
X136846602Y-104009841D01*
X136853272Y-103906544D01*
X136859327Y-103824239D01*
X136865004Y-103760128D01*
X136870539Y-103711412D01*
X136876170Y-103675294D01*
X136882132Y-103648976D01*
X136888662Y-103629661D01*
X136895997Y-103614549D01*
X136904374Y-103600844D01*
X136914030Y-103585748D01*
X136920100Y-103575613D01*
X136961354Y-103511402D01*
X137006790Y-103459181D01*
X137061723Y-103416727D01*
X137131467Y-103381820D01*
X137221336Y-103352237D01*
X137336644Y-103325757D01*
X137482705Y-103300159D01*
X137632440Y-103277799D01*
X137793872Y-103255003D01*
X137919541Y-103237892D01*
X138013880Y-103226163D01*
X138081322Y-103219513D01*
X138126301Y-103217641D01*
X138153248Y-103220242D01*
X138166599Y-103227015D01*
X138170785Y-103237656D01*
X138170920Y-103241025D01*
X138158626Y-103265416D01*
X138124942Y-103314333D01*
X138074667Y-103381226D01*
X138012596Y-103459544D01*
X137996089Y-103479785D01*
X137902696Y-103595823D01*
X137831214Y-103691203D01*
X137776130Y-103775261D01*
X137731927Y-103857328D01*
X137693093Y-103946739D01*
X137654112Y-104052826D01*
X137649303Y-104066713D01*
X137616131Y-104168812D01*
X137595869Y-104251096D01*
X137588436Y-104308450D01*
X138475736Y-104308450D01*
X138483079Y-104223636D01*
X138507077Y-104138912D01*
X138550719Y-104049073D01*
X138616997Y-103948918D01*
X138708900Y-103833245D01*
X138823692Y-103703120D01*
X138916896Y-103600538D01*
X139015680Y-103491084D01*
X139110279Y-103385623D01*
X139190930Y-103295019D01*
X139216332Y-103266240D01*
X139282071Y-103192589D01*
X139340579Y-103129009D01*
X139385299Y-103082500D01*
X139409067Y-103060485D01*
X139446489Y-103045238D01*
X139508054Y-103030845D01*
X139552680Y-103023989D01*
X139604025Y-103017412D01*
X139688571Y-103006209D01*
X139799262Y-102991333D01*
X139929044Y-102973735D01*
X140070862Y-102954366D01*
X140172440Y-102940412D01*
X140348939Y-102916159D01*
X140550906Y-102888490D01*
X140763533Y-102859430D01*
X140972014Y-102831002D01*
X141161542Y-102805228D01*
X141208760Y-102798822D01*
X141369671Y-102776824D01*
X141534494Y-102753971D01*
X141693614Y-102731620D01*
X141837417Y-102711125D01*
X141956290Y-102693843D01*
X142011400Y-102685617D01*
X142127430Y-102668381D01*
X142262108Y-102648947D01*
X142409528Y-102628112D01*
X142563784Y-102606673D01*
X142718969Y-102585427D01*
X142869177Y-102565169D01*
X143008503Y-102546697D01*
X143131039Y-102530809D01*
X143230879Y-102518299D01*
X143302118Y-102509965D01*
X143338289Y-102506626D01*
X143398912Y-102514512D01*
X143452266Y-102533762D01*
X143497155Y-102568496D01*
X143532306Y-102625338D01*
X143563136Y-102713244D01*
X143565162Y-102720398D01*
X143565396Y-102753256D01*
X143558848Y-102819082D01*
X143546461Y-102910943D01*
X143529178Y-103021908D01*
X143507943Y-103145045D01*
X143505726Y-103157278D01*
X143479923Y-103299040D01*
X143453163Y-103446032D01*
X143427611Y-103586364D01*
X143405431Y-103708144D01*
X143391538Y-103784400D01*
X143370797Y-103901572D01*
X143349533Y-104027281D01*
X143330844Y-104142979D01*
X143321993Y-104200960D01*
X143309830Y-104279216D01*
X143292107Y-104387618D01*
X143270478Y-104516323D01*
X143246599Y-104655483D01*
X143222125Y-104795252D01*
X143221214Y-104800400D01*
X143179290Y-105037670D01*
X143137747Y-105274095D01*
X143097355Y-105505201D01*
X143058886Y-105726516D01*
X143023111Y-105933564D01*
X142990801Y-106121870D01*
X142962728Y-106286962D01*
X142939662Y-106424364D01*
X142922374Y-106529603D01*
X142913633Y-106584941D01*
X142898464Y-106679877D01*
X142882928Y-106770038D01*
X142869627Y-106840554D01*
X142865665Y-106859261D01*
X142855270Y-106912048D01*
X142840792Y-106994074D01*
X142824100Y-107094376D01*
X142807067Y-107201992D01*
X142806093Y-107208320D01*
X142774094Y-107404312D01*
X142741532Y-107580466D01*
X142709334Y-107732761D01*
X142678425Y-107857172D01*
X142649734Y-107949677D01*
X142624185Y-108006251D01*
X142621441Y-108010341D01*
X142574873Y-108064356D01*
X142523671Y-108109208D01*
X142478955Y-108134148D01*
X142410446Y-108164473D01*
X142325598Y-108197723D01*
X142231863Y-108231439D01*
X142136696Y-108263162D01*
X142047549Y-108290432D01*
X141971876Y-108310792D01*
X141917131Y-108321781D01*
X141890766Y-108320940D01*
X141889480Y-108318444D01*
X141899605Y-108294419D01*
X141925817Y-108247740D01*
X141953391Y-108202899D01*
X142065089Y-108008943D01*
X142143956Y-107827610D01*
X142192481Y-107651422D01*
X142213157Y-107472904D01*
X142214299Y-107419846D01*
X142211730Y-107329265D01*
X142200827Y-107260259D01*
X142177428Y-107193980D01*
X142153024Y-107142389D01*
X142125845Y-107092149D01*
X142094938Y-107045933D01*
X142055730Y-106999358D01*
X142003645Y-106948039D01*
X141934109Y-106887592D01*
X141842548Y-106813633D01*
X141724385Y-106721779D01*
X141673010Y-106682381D01*
X141594139Y-106619994D01*
X141527727Y-106563599D01*
X141480307Y-106519020D01*
X141458409Y-106492081D01*
X141457856Y-106490511D01*
X141458160Y-106461247D01*
X141463889Y-106398021D01*
X141474308Y-106307043D01*
X141488683Y-106194522D01*
X141506279Y-106066667D01*
X141516003Y-105999280D01*
X141538864Y-105843236D01*
X141563043Y-105678148D01*
X141586787Y-105515990D01*
X141608343Y-105368736D01*
X141625958Y-105248362D01*
X141627628Y-105236945D01*
X141647032Y-105093597D01*
X141657580Y-104982887D01*
X141658887Y-104897707D01*
X141650566Y-104830946D01*
X141632231Y-104775494D01*
X141603494Y-104724244D01*
X141599425Y-104718180D01*
X141557158Y-104662368D01*
X141512075Y-104619135D01*
X141459701Y-104588123D01*
X141395563Y-104568976D01*
X141315185Y-104561337D01*
X141214094Y-104564851D01*
X141087815Y-104579162D01*
X140931873Y-104603911D01*
X140741794Y-104638745D01*
X140700760Y-104646607D01*
X140550901Y-104675464D01*
X140401346Y-104704262D01*
X140260953Y-104731296D01*
X140138576Y-104754861D01*
X140043072Y-104773251D01*
X140009880Y-104779642D01*
X139893630Y-104801450D01*
X139763865Y-104824905D01*
X139643834Y-104845826D01*
X139613640Y-104850910D01*
X139495405Y-104875749D01*
X139380779Y-104908781D01*
X139291318Y-104943326D01*
X139225065Y-104973284D01*
X139173530Y-104994862D01*
X139147439Y-105003582D01*
X139147030Y-105003600D01*
X139124822Y-104992229D01*
X139077031Y-104961414D01*
X139010580Y-104916106D01*
X138932391Y-104861255D01*
X138849385Y-104801810D01*
X138768487Y-104742722D01*
X138696617Y-104688941D01*
X138640698Y-104645416D01*
X138611019Y-104620311D01*
X138529884Y-104518635D01*
X138484880Y-104399225D01*
X138475736Y-104308450D01*
X137588436Y-104308450D01*
X137585495Y-104331140D01*
X137581986Y-104426516D01*
X137581821Y-104459040D01*
X137591892Y-104661775D01*
X137623712Y-104835027D01*
X137679084Y-104984721D01*
X137759810Y-105116783D01*
X137795448Y-105161178D01*
X137833408Y-105197130D01*
X137899745Y-105251030D01*
X137988793Y-105318634D01*
X138094886Y-105395695D01*
X138212355Y-105477968D01*
X138278618Y-105523131D01*
X138394607Y-105601998D01*
X138500532Y-105675138D01*
X138591313Y-105738953D01*
X138661871Y-105789847D01*
X138707127Y-105824222D01*
X138720816Y-105836281D01*
X138736597Y-105862089D01*
X138743750Y-105899736D01*
X138743070Y-105959115D01*
X138736816Y-106035215D01*
X138727615Y-106132949D01*
X138718521Y-106233719D01*
X138711479Y-106315970D01*
X138711388Y-106317085D01*
X138705743Y-106381009D01*
X138696940Y-106474249D01*
X138686053Y-106585703D01*
X138674155Y-106704268D01*
X138670405Y-106740960D01*
X138663890Y-106810452D01*
X139464265Y-106810452D01*
X139464525Y-106744937D01*
X139470121Y-106644501D01*
X139480851Y-106511797D01*
X139496509Y-106349482D01*
X139516893Y-106160210D01*
X139531074Y-106036794D01*
X139550927Y-105885648D01*
X139571411Y-105770445D01*
X139593992Y-105686494D01*
X139620132Y-105629108D01*
X139651296Y-105593597D01*
X139673524Y-105580620D01*
X139701338Y-105572982D01*
X139763317Y-105558483D01*
X139853803Y-105538363D01*
X139967137Y-105513863D01*
X140097661Y-105486224D01*
X140223240Y-105460086D01*
X140413182Y-105421474D01*
X140566696Y-105391720D01*
X140686909Y-105370354D01*
X140776947Y-105356904D01*
X140839935Y-105350900D01*
X140879002Y-105351871D01*
X140896611Y-105358625D01*
X140898171Y-105381738D01*
X140893984Y-105434963D01*
X140884933Y-105508319D01*
X140880852Y-105536425D01*
X140869871Y-105614033D01*
X140855704Y-105721123D01*
X140839743Y-105846796D01*
X140823381Y-105980151D01*
X140812649Y-106070400D01*
X140794499Y-106223106D01*
X140779213Y-106340444D01*
X140765054Y-106427428D01*
X140750282Y-106489070D01*
X140733161Y-106530380D01*
X140711951Y-106556372D01*
X140684915Y-106572056D01*
X140650315Y-106582446D01*
X140633735Y-106586294D01*
X140588179Y-106596764D01*
X140509511Y-106615011D01*
X140404181Y-106639532D01*
X140278645Y-106668822D01*
X140139354Y-106701378D01*
X140011805Y-106731234D01*
X139871240Y-106763443D01*
X139743641Y-106791309D01*
X139634335Y-106813781D01*
X139548651Y-106829804D01*
X139491917Y-106838325D01*
X139469545Y-106838390D01*
X139464265Y-106810452D01*
X138663890Y-106810452D01*
X138652171Y-106935447D01*
X138641418Y-107093970D01*
X138638222Y-107220526D01*
X138642660Y-107319111D01*
X138654807Y-107393721D01*
X138674739Y-107448353D01*
X138684164Y-107464396D01*
X138762182Y-107546267D01*
X138866903Y-107598660D01*
X138996716Y-107621252D01*
X139150014Y-107613723D01*
X139289772Y-107585458D01*
X139489161Y-107533663D01*
X139690387Y-107481778D01*
X139889278Y-107430848D01*
X140081661Y-107381920D01*
X140263362Y-107336040D01*
X140430210Y-107294253D01*
X140578031Y-107257604D01*
X140702653Y-107227140D01*
X140799902Y-107203906D01*
X140865607Y-107188948D01*
X140893800Y-107183488D01*
X140924485Y-107182341D01*
X140956712Y-107189138D01*
X140996739Y-107207227D01*
X141050824Y-107239959D01*
X141125226Y-107290684D01*
X141218920Y-107357503D01*
X141318189Y-107431565D01*
X141403463Y-107500161D01*
X141468572Y-107558045D01*
X141507349Y-107599970D01*
X141511866Y-107606754D01*
X141546629Y-107700213D01*
X141545106Y-107802818D01*
X141507022Y-107917813D01*
X141481386Y-107968194D01*
X141441387Y-108030535D01*
X141381206Y-108112110D01*
X141307112Y-108205578D01*
X141225375Y-108303603D01*
X141142264Y-108398845D01*
X141064049Y-108483968D01*
X140997001Y-108551631D01*
X140947387Y-108594498D01*
X140944600Y-108596470D01*
X140909451Y-108613163D01*
X140841040Y-108639074D01*
X140745211Y-108672359D01*
X140627808Y-108711175D01*
X140494674Y-108753676D01*
X140351653Y-108798018D01*
X140204587Y-108842357D01*
X140059322Y-108884848D01*
X139921700Y-108923647D01*
X139827000Y-108949217D01*
X139731347Y-108975798D01*
X139622291Y-109008099D01*
X139532360Y-109036278D01*
X139474952Y-109054282D01*
X139383098Y-109082255D01*
X139261384Y-109118849D01*
X139114395Y-109162713D01*
X138946719Y-109212498D01*
X138762941Y-109266856D01*
X138567646Y-109324435D01*
X138365421Y-109383888D01*
X138160851Y-109443864D01*
X137958523Y-109503014D01*
X137763023Y-109559988D01*
X137578936Y-109613438D01*
X137410848Y-109662014D01*
X137263346Y-109704366D01*
X137215880Y-109717911D01*
X137071039Y-109758781D01*
X136959565Y-109789086D01*
X136875901Y-109809951D01*
X136814491Y-109822501D01*
X136769779Y-109827862D01*
X136736209Y-109827160D01*
X136708224Y-109821520D01*
X136706663Y-109821068D01*
X136624079Y-109780880D01*
X136565606Y-109720087D01*
X136538720Y-109647081D01*
X136537789Y-109631466D01*
X135639258Y-109631466D01*
X135636776Y-109703832D01*
X135633824Y-109815999D01*
X135632892Y-109902483D01*
X135634052Y-109968257D01*
X135637380Y-110018293D01*
X135642948Y-110057564D01*
X135650831Y-110091043D01*
X135659371Y-110118556D01*
X135724151Y-110250272D01*
X135822407Y-110362283D01*
X135950835Y-110452169D01*
X136106131Y-110517507D01*
X136249366Y-110550779D01*
X136327413Y-110560916D01*
X136403770Y-110564954D01*
X136483697Y-110561931D01*
X136572454Y-110550886D01*
X136675305Y-110530858D01*
X136797508Y-110500885D01*
X136944326Y-110460007D01*
X137121020Y-110407263D01*
X137246360Y-110368654D01*
X137392361Y-110323385D01*
X137562873Y-110270623D01*
X137743558Y-110214796D01*
X137920074Y-110160336D01*
X138069320Y-110114370D01*
X138190162Y-110077044D01*
X138342220Y-110029840D01*
X138517952Y-109975110D01*
X138709820Y-109915210D01*
X138910282Y-109852494D01*
X139111800Y-109789315D01*
X139306832Y-109728027D01*
X139310149Y-109726983D01*
X139483061Y-109672674D01*
X139643881Y-109622361D01*
X139788489Y-109577317D01*
X139912763Y-109538817D01*
X140012584Y-109508136D01*
X140083829Y-109486549D01*
X140122378Y-109475329D01*
X140128029Y-109474001D01*
X140139567Y-109479079D01*
X140136382Y-109496411D01*
X140116119Y-109529146D01*
X140076419Y-109580428D01*
X140014926Y-109653406D01*
X139929283Y-109751226D01*
X139872720Y-109814864D01*
X139797557Y-109899129D01*
X139700219Y-110008254D01*
X139585581Y-110136769D01*
X139458522Y-110279207D01*
X139323918Y-110430101D01*
X139186648Y-110583982D01*
X139051589Y-110735383D01*
X139036573Y-110752215D01*
X138914068Y-110888812D01*
X138798637Y-111016126D01*
X138693336Y-111130887D01*
X138601223Y-111229825D01*
X138525354Y-111309672D01*
X138468785Y-111367158D01*
X138434573Y-111399014D01*
X138426973Y-111404247D01*
X138388820Y-111417562D01*
X138323433Y-111438980D01*
X138242440Y-111464720D01*
X138207438Y-111475640D01*
X138032883Y-111545791D01*
X137858373Y-111645198D01*
X137691752Y-111767321D01*
X137540868Y-111905622D01*
X137413565Y-112053561D01*
X137317689Y-112204598D01*
X137306933Y-112226217D01*
X137267006Y-112314507D01*
X137243358Y-112383738D01*
X137231847Y-112449987D01*
X137228333Y-112529334D01*
X137228313Y-112531467D01*
X137234515Y-112645773D01*
X137259367Y-112731381D01*
X137308766Y-112798180D01*
X137388607Y-112856058D01*
X137437714Y-112882681D01*
X137539590Y-112926132D01*
X137635458Y-112946092D01*
X137737836Y-112943275D01*
D14*
X136180000Y-103545000D02*
X136680000Y-103545000D01*
X134180000Y-101045000D02*
G75*
G03X134180000Y-101045000I-2000000J0D01*
G01*
X134180000Y-106045000D02*
G75*
G03X134180000Y-106045000I-2000000J0D01*
G01*
X134680000Y-108545000D02*
X134680000Y-98545000D01*
X129780000Y-108545000D02*
X129780000Y-98545000D01*
X136180000Y-108545000D02*
X136180000Y-98545000D01*
X136680000Y-108545000D02*
X136680000Y-98545000D01*
X136680000Y-98545000D02*
X126880000Y-98545000D01*
X126880000Y-98545000D02*
X126880000Y-108545000D01*
X126880000Y-108545000D02*
X136680000Y-108545000D01*
M02*
