G04 #@! TF.FileFunction,Copper,L1,Top,Signal*
%FSLAX46Y46*%
G04 Gerber Fmt 4.6, Leading zero omitted, Abs format (unit mm)*
G04 Created by KiCad (PCBNEW 4.0.2-4+6225~38~ubuntu14.04.1-stable) date Sat 30 Apr 2016 11:35:10 AM PDT*
%MOMM*%
G01*
G04 APERTURE LIST*
%ADD10C,0.100000*%
%ADD11R,1.250000X1.500000*%
%ADD12R,1.727200X1.727200*%
%ADD13O,1.727200X1.727200*%
%ADD14R,1.500000X1.300000*%
%ADD15R,1.300000X1.500000*%
%ADD16R,2.032000X3.657600*%
%ADD17R,2.032000X1.016000*%
%ADD18R,1.727200X2.032000*%
%ADD19O,1.727200X2.032000*%
%ADD20C,2.500000*%
%ADD21R,2.500000X2.500000*%
%ADD22C,0.600000*%
%ADD23C,0.250000*%
%ADD24C,0.254000*%
G04 APERTURE END LIST*
D10*
D11*
X140335000Y-106700000D03*
X140335000Y-109200000D03*
X135255000Y-106700000D03*
X135255000Y-109200000D03*
X137795000Y-106700000D03*
X137795000Y-109200000D03*
D12*
X134620000Y-116840000D03*
D13*
X134620000Y-114300000D03*
X137160000Y-116840000D03*
X137160000Y-114300000D03*
X139700000Y-116840000D03*
X139700000Y-114300000D03*
X142240000Y-116840000D03*
X142240000Y-114300000D03*
D14*
X137080000Y-119380000D03*
X139780000Y-119380000D03*
D15*
X142875000Y-109300000D03*
X142875000Y-106600000D03*
X130175000Y-115490000D03*
X130175000Y-118190000D03*
D16*
X143002000Y-101600000D03*
D17*
X136398000Y-101600000D03*
X136398000Y-103886000D03*
X136398000Y-99314000D03*
D18*
X144780000Y-123190000D03*
D19*
X142240000Y-123190000D03*
X139700000Y-123190000D03*
X137160000Y-123190000D03*
X134620000Y-123190000D03*
X132080000Y-123190000D03*
X129540000Y-123190000D03*
D20*
X132080000Y-101125000D03*
D21*
X132080000Y-111125000D03*
D20*
X132080000Y-106125000D03*
D22*
X144780000Y-106680000D03*
X139065000Y-111125000D03*
X138430000Y-120650000D03*
X140335000Y-121285000D03*
X144145000Y-102235000D03*
X144145000Y-100965000D03*
X144145000Y-99695000D03*
X142875000Y-100965000D03*
X142875000Y-99695000D03*
X142875000Y-98425000D03*
X144145000Y-98425000D03*
X145415000Y-98425000D03*
X145415000Y-99695000D03*
X145415000Y-100965000D03*
X145415000Y-102235000D03*
X145415000Y-103505000D03*
X145415000Y-104775000D03*
X144145000Y-104775000D03*
X142875000Y-102235000D03*
X143510000Y-103505000D03*
X134620000Y-104775000D03*
D23*
X142875000Y-106600000D02*
X144700000Y-106600000D01*
X144700000Y-106600000D02*
X144780000Y-106680000D01*
X139700000Y-123190000D02*
X139700000Y-119460000D01*
X139700000Y-119460000D02*
X139780000Y-119380000D01*
X130175000Y-115490000D02*
X129460000Y-115490000D01*
X128905000Y-109300000D02*
X132080000Y-106125000D01*
X128905000Y-114935000D02*
X128905000Y-109300000D01*
X129460000Y-115490000D02*
X128905000Y-114935000D01*
X136398000Y-101600000D02*
X135890000Y-101600000D01*
X135890000Y-101600000D02*
X132080000Y-105410000D01*
X132080000Y-105410000D02*
X132080000Y-106125000D01*
X132080000Y-106125000D02*
X132655000Y-106700000D01*
X132655000Y-106700000D02*
X135255000Y-106700000D01*
X139780000Y-119380000D02*
X139780000Y-119300000D01*
X139780000Y-119300000D02*
X139860000Y-119380000D01*
X139860000Y-119380000D02*
X140970000Y-119380000D01*
X140970000Y-119380000D02*
X142240000Y-118110000D01*
X142240000Y-118110000D02*
X142240000Y-116840000D01*
X136398000Y-101600000D02*
X138430000Y-101600000D01*
X138430000Y-101600000D02*
X142875000Y-106045000D01*
X142875000Y-106045000D02*
X142875000Y-106600000D01*
X137795000Y-106700000D02*
X135255000Y-106700000D01*
X135255000Y-106700000D02*
X134720000Y-107235000D01*
X142240000Y-116840000D02*
X142875000Y-116840000D01*
X135255000Y-106045000D02*
X135255000Y-106700000D01*
X135275000Y-106700000D02*
X135255000Y-106700000D01*
X140335000Y-109200000D02*
X140355000Y-109200000D01*
X140355000Y-109200000D02*
X141605000Y-107950000D01*
X141605000Y-107950000D02*
X142875000Y-107950000D01*
X142875000Y-107950000D02*
X144780000Y-107950000D01*
X139065000Y-111125000D02*
X137795000Y-109855000D01*
X137795000Y-109855000D02*
X137795000Y-109200000D01*
X134620000Y-116840000D02*
X134620000Y-123190000D01*
X137160000Y-116840000D02*
X137160000Y-119300000D01*
X137160000Y-119300000D02*
X137080000Y-119380000D01*
X138430000Y-117475000D02*
X139065000Y-116840000D01*
X138430000Y-120650000D02*
X138430000Y-117475000D01*
X139065000Y-116840000D02*
X139700000Y-116840000D01*
X142875000Y-109300000D02*
X142875000Y-110490000D01*
X140970000Y-115570000D02*
X139700000Y-116840000D01*
X140970000Y-112395000D02*
X140970000Y-115570000D01*
X142875000Y-110490000D02*
X140970000Y-112395000D01*
X142875000Y-109300000D02*
X142955000Y-109220000D01*
X132080000Y-123190000D02*
X132080000Y-120095000D01*
X132080000Y-120095000D02*
X130175000Y-118190000D01*
X139700000Y-114300000D02*
X138430000Y-115570000D01*
X138430000Y-115570000D02*
X133350000Y-115570000D01*
X132080000Y-123190000D02*
X132080000Y-116840000D01*
X133350000Y-115570000D02*
X132080000Y-116840000D01*
X142240000Y-114300000D02*
X144145000Y-116205000D01*
X142240000Y-121285000D02*
X140335000Y-121285000D01*
X144145000Y-119380000D02*
X142240000Y-121285000D01*
X144145000Y-116205000D02*
X144145000Y-119380000D01*
X142875000Y-99695000D02*
X144145000Y-99695000D01*
X144145000Y-100965000D02*
X144145000Y-102235000D01*
X142875000Y-98425000D02*
X142875000Y-99695000D01*
X142875000Y-100965000D02*
X143002000Y-101092000D01*
X144145000Y-104775000D02*
X143510000Y-103505000D01*
X143002000Y-98552000D02*
X142875000Y-98425000D01*
X144145000Y-98425000D02*
X145415000Y-98425000D01*
X145415000Y-99695000D02*
X145415000Y-100965000D01*
X145415000Y-102235000D02*
X145415000Y-103505000D01*
X145415000Y-104775000D02*
X144145000Y-104775000D01*
X136398000Y-103886000D02*
X135509000Y-103886000D01*
X135509000Y-103886000D02*
X134620000Y-104775000D01*
X136398000Y-103886000D02*
X138811000Y-103886000D01*
X140970000Y-106045000D02*
X140335000Y-106700000D01*
X138811000Y-103886000D02*
X140970000Y-106045000D01*
X136652000Y-104140000D02*
X136398000Y-103886000D01*
D24*
G36*
X144249673Y-107472192D02*
X144593201Y-107614838D01*
X144965167Y-107615162D01*
X145308943Y-107473117D01*
X145340000Y-107442114D01*
X145340000Y-121539000D01*
X145065750Y-121539000D01*
X144907000Y-121697750D01*
X144907000Y-123063000D01*
X144927000Y-123063000D01*
X144927000Y-123317000D01*
X144907000Y-123317000D01*
X144907000Y-123337000D01*
X144653000Y-123337000D01*
X144653000Y-123317000D01*
X144633000Y-123317000D01*
X144633000Y-123063000D01*
X144653000Y-123063000D01*
X144653000Y-121697750D01*
X144494250Y-121539000D01*
X143790090Y-121539000D01*
X143556701Y-121635673D01*
X143378073Y-121814302D01*
X143314500Y-121967780D01*
X143299670Y-121945585D01*
X142912749Y-121687053D01*
X144682401Y-119917401D01*
X144847148Y-119670839D01*
X144905000Y-119380000D01*
X144905000Y-116205000D01*
X144847148Y-115914161D01*
X144682401Y-115667599D01*
X143673158Y-114658356D01*
X143738600Y-114329359D01*
X143738600Y-114270641D01*
X143624526Y-113697152D01*
X143299670Y-113210971D01*
X142813489Y-112886115D01*
X142240000Y-112772041D01*
X141730000Y-112873486D01*
X141730000Y-112709802D01*
X143412401Y-111027401D01*
X143577148Y-110780839D01*
X143596410Y-110684003D01*
X143760317Y-110653162D01*
X143976441Y-110514090D01*
X144121431Y-110301890D01*
X144172440Y-110050000D01*
X144172440Y-108550000D01*
X144128162Y-108314683D01*
X143989090Y-108098559D01*
X143776890Y-107953569D01*
X143763803Y-107950919D01*
X143976441Y-107814090D01*
X144121431Y-107601890D01*
X144164894Y-107387265D01*
X144249673Y-107472192D01*
X144249673Y-107472192D01*
G37*
X144249673Y-107472192D02*
X144593201Y-107614838D01*
X144965167Y-107615162D01*
X145308943Y-107473117D01*
X145340000Y-107442114D01*
X145340000Y-121539000D01*
X145065750Y-121539000D01*
X144907000Y-121697750D01*
X144907000Y-123063000D01*
X144927000Y-123063000D01*
X144927000Y-123317000D01*
X144907000Y-123317000D01*
X144907000Y-123337000D01*
X144653000Y-123337000D01*
X144653000Y-123317000D01*
X144633000Y-123317000D01*
X144633000Y-123063000D01*
X144653000Y-123063000D01*
X144653000Y-121697750D01*
X144494250Y-121539000D01*
X143790090Y-121539000D01*
X143556701Y-121635673D01*
X143378073Y-121814302D01*
X143314500Y-121967780D01*
X143299670Y-121945585D01*
X142912749Y-121687053D01*
X144682401Y-119917401D01*
X144847148Y-119670839D01*
X144905000Y-119380000D01*
X144905000Y-116205000D01*
X144847148Y-115914161D01*
X144682401Y-115667599D01*
X143673158Y-114658356D01*
X143738600Y-114329359D01*
X143738600Y-114270641D01*
X143624526Y-113697152D01*
X143299670Y-113210971D01*
X142813489Y-112886115D01*
X142240000Y-112772041D01*
X141730000Y-112873486D01*
X141730000Y-112709802D01*
X143412401Y-111027401D01*
X143577148Y-110780839D01*
X143596410Y-110684003D01*
X143760317Y-110653162D01*
X143976441Y-110514090D01*
X144121431Y-110301890D01*
X144172440Y-110050000D01*
X144172440Y-108550000D01*
X144128162Y-108314683D01*
X143989090Y-108098559D01*
X143776890Y-107953569D01*
X143763803Y-107950919D01*
X143976441Y-107814090D01*
X144121431Y-107601890D01*
X144164894Y-107387265D01*
X144249673Y-107472192D01*
G36*
X134026838Y-107685317D02*
X134165910Y-107901441D01*
X134234006Y-107947969D01*
X134091673Y-108090302D01*
X133995000Y-108323691D01*
X133995000Y-108914250D01*
X134153750Y-109073000D01*
X135128000Y-109073000D01*
X135128000Y-109053000D01*
X135382000Y-109053000D01*
X135382000Y-109073000D01*
X136356250Y-109073000D01*
X136515000Y-108914250D01*
X136515000Y-108323691D01*
X136418327Y-108090302D01*
X136277090Y-107949064D01*
X136331441Y-107914090D01*
X136476431Y-107701890D01*
X136524910Y-107462491D01*
X136566838Y-107685317D01*
X136705910Y-107901441D01*
X136774006Y-107947969D01*
X136631673Y-108090302D01*
X136535000Y-108323691D01*
X136535000Y-108914250D01*
X136693750Y-109073000D01*
X137668000Y-109073000D01*
X137668000Y-109053000D01*
X137922000Y-109053000D01*
X137922000Y-109073000D01*
X138896250Y-109073000D01*
X139055000Y-108914250D01*
X139055000Y-108323691D01*
X138958327Y-108090302D01*
X138817090Y-107949064D01*
X138871441Y-107914090D01*
X139016431Y-107701890D01*
X139064910Y-107462491D01*
X139106838Y-107685317D01*
X139245910Y-107901441D01*
X139314006Y-107947969D01*
X139171673Y-108090302D01*
X139075000Y-108323691D01*
X139075000Y-108914250D01*
X139233750Y-109073000D01*
X140208000Y-109073000D01*
X140208000Y-109053000D01*
X140462000Y-109053000D01*
X140462000Y-109073000D01*
X140482000Y-109073000D01*
X140482000Y-109327000D01*
X140462000Y-109327000D01*
X140462000Y-110426250D01*
X140620750Y-110585000D01*
X141086310Y-110585000D01*
X141319699Y-110488327D01*
X141498327Y-110309698D01*
X141586412Y-110097043D01*
X141621838Y-110285317D01*
X141760910Y-110501441D01*
X141777453Y-110512745D01*
X140432599Y-111857599D01*
X140267852Y-112104161D01*
X140210000Y-112395000D01*
X140210000Y-112873486D01*
X139700000Y-112772041D01*
X139126511Y-112886115D01*
X138640330Y-113210971D01*
X138430000Y-113525752D01*
X138219670Y-113210971D01*
X137733489Y-112886115D01*
X137160000Y-112772041D01*
X136586511Y-112886115D01*
X136100330Y-113210971D01*
X135884336Y-113534228D01*
X135826821Y-113411510D01*
X135394947Y-113017312D01*
X134979026Y-112845042D01*
X134747000Y-112966183D01*
X134747000Y-114173000D01*
X134767000Y-114173000D01*
X134767000Y-114427000D01*
X134747000Y-114427000D01*
X134747000Y-114447000D01*
X134493000Y-114447000D01*
X134493000Y-114427000D01*
X133285531Y-114427000D01*
X133165032Y-114659027D01*
X133245529Y-114830781D01*
X133059160Y-114867852D01*
X132812599Y-115032599D01*
X131542599Y-116302599D01*
X131423741Y-116480483D01*
X131472440Y-116240000D01*
X131472440Y-114740000D01*
X131428162Y-114504683D01*
X131289090Y-114288559D01*
X131076890Y-114143569D01*
X130825000Y-114092560D01*
X129665000Y-114092560D01*
X129665000Y-113940973D01*
X133165032Y-113940973D01*
X133285531Y-114173000D01*
X134493000Y-114173000D01*
X134493000Y-112966183D01*
X134260974Y-112845042D01*
X133845053Y-113017312D01*
X133413179Y-113411510D01*
X133165032Y-113940973D01*
X129665000Y-113940973D01*
X129665000Y-109875000D01*
X130182560Y-109875000D01*
X130182560Y-112375000D01*
X130226838Y-112610317D01*
X130365910Y-112826441D01*
X130578110Y-112971431D01*
X130830000Y-113022440D01*
X133330000Y-113022440D01*
X133565317Y-112978162D01*
X133781441Y-112839090D01*
X133926431Y-112626890D01*
X133977440Y-112375000D01*
X133977440Y-109875000D01*
X133933162Y-109639683D01*
X133834109Y-109485750D01*
X133995000Y-109485750D01*
X133995000Y-110076309D01*
X134091673Y-110309698D01*
X134270301Y-110488327D01*
X134503690Y-110585000D01*
X134969250Y-110585000D01*
X135128000Y-110426250D01*
X135128000Y-109327000D01*
X135382000Y-109327000D01*
X135382000Y-110426250D01*
X135540750Y-110585000D01*
X136006310Y-110585000D01*
X136239699Y-110488327D01*
X136418327Y-110309698D01*
X136515000Y-110076309D01*
X136515000Y-109485750D01*
X136535000Y-109485750D01*
X136535000Y-110076309D01*
X136631673Y-110309698D01*
X136810301Y-110488327D01*
X137043690Y-110585000D01*
X137509250Y-110585000D01*
X137668000Y-110426250D01*
X137668000Y-109327000D01*
X137922000Y-109327000D01*
X137922000Y-110426250D01*
X138080750Y-110585000D01*
X138546310Y-110585000D01*
X138779699Y-110488327D01*
X138958327Y-110309698D01*
X139055000Y-110076309D01*
X139055000Y-109485750D01*
X139075000Y-109485750D01*
X139075000Y-110076309D01*
X139171673Y-110309698D01*
X139350301Y-110488327D01*
X139583690Y-110585000D01*
X140049250Y-110585000D01*
X140208000Y-110426250D01*
X140208000Y-109327000D01*
X139233750Y-109327000D01*
X139075000Y-109485750D01*
X139055000Y-109485750D01*
X138896250Y-109327000D01*
X137922000Y-109327000D01*
X137668000Y-109327000D01*
X136693750Y-109327000D01*
X136535000Y-109485750D01*
X136515000Y-109485750D01*
X136356250Y-109327000D01*
X135382000Y-109327000D01*
X135128000Y-109327000D01*
X134153750Y-109327000D01*
X133995000Y-109485750D01*
X133834109Y-109485750D01*
X133794090Y-109423559D01*
X133581890Y-109278569D01*
X133330000Y-109227560D01*
X130830000Y-109227560D01*
X130594683Y-109271838D01*
X130378559Y-109410910D01*
X130233569Y-109623110D01*
X130182560Y-109875000D01*
X129665000Y-109875000D01*
X129665000Y-109614802D01*
X131397255Y-107882547D01*
X131703405Y-108009672D01*
X132453305Y-108010326D01*
X133146372Y-107723957D01*
X133410790Y-107460000D01*
X133984442Y-107460000D01*
X134026838Y-107685317D01*
X134026838Y-107685317D01*
G37*
X134026838Y-107685317D02*
X134165910Y-107901441D01*
X134234006Y-107947969D01*
X134091673Y-108090302D01*
X133995000Y-108323691D01*
X133995000Y-108914250D01*
X134153750Y-109073000D01*
X135128000Y-109073000D01*
X135128000Y-109053000D01*
X135382000Y-109053000D01*
X135382000Y-109073000D01*
X136356250Y-109073000D01*
X136515000Y-108914250D01*
X136515000Y-108323691D01*
X136418327Y-108090302D01*
X136277090Y-107949064D01*
X136331441Y-107914090D01*
X136476431Y-107701890D01*
X136524910Y-107462491D01*
X136566838Y-107685317D01*
X136705910Y-107901441D01*
X136774006Y-107947969D01*
X136631673Y-108090302D01*
X136535000Y-108323691D01*
X136535000Y-108914250D01*
X136693750Y-109073000D01*
X137668000Y-109073000D01*
X137668000Y-109053000D01*
X137922000Y-109053000D01*
X137922000Y-109073000D01*
X138896250Y-109073000D01*
X139055000Y-108914250D01*
X139055000Y-108323691D01*
X138958327Y-108090302D01*
X138817090Y-107949064D01*
X138871441Y-107914090D01*
X139016431Y-107701890D01*
X139064910Y-107462491D01*
X139106838Y-107685317D01*
X139245910Y-107901441D01*
X139314006Y-107947969D01*
X139171673Y-108090302D01*
X139075000Y-108323691D01*
X139075000Y-108914250D01*
X139233750Y-109073000D01*
X140208000Y-109073000D01*
X140208000Y-109053000D01*
X140462000Y-109053000D01*
X140462000Y-109073000D01*
X140482000Y-109073000D01*
X140482000Y-109327000D01*
X140462000Y-109327000D01*
X140462000Y-110426250D01*
X140620750Y-110585000D01*
X141086310Y-110585000D01*
X141319699Y-110488327D01*
X141498327Y-110309698D01*
X141586412Y-110097043D01*
X141621838Y-110285317D01*
X141760910Y-110501441D01*
X141777453Y-110512745D01*
X140432599Y-111857599D01*
X140267852Y-112104161D01*
X140210000Y-112395000D01*
X140210000Y-112873486D01*
X139700000Y-112772041D01*
X139126511Y-112886115D01*
X138640330Y-113210971D01*
X138430000Y-113525752D01*
X138219670Y-113210971D01*
X137733489Y-112886115D01*
X137160000Y-112772041D01*
X136586511Y-112886115D01*
X136100330Y-113210971D01*
X135884336Y-113534228D01*
X135826821Y-113411510D01*
X135394947Y-113017312D01*
X134979026Y-112845042D01*
X134747000Y-112966183D01*
X134747000Y-114173000D01*
X134767000Y-114173000D01*
X134767000Y-114427000D01*
X134747000Y-114427000D01*
X134747000Y-114447000D01*
X134493000Y-114447000D01*
X134493000Y-114427000D01*
X133285531Y-114427000D01*
X133165032Y-114659027D01*
X133245529Y-114830781D01*
X133059160Y-114867852D01*
X132812599Y-115032599D01*
X131542599Y-116302599D01*
X131423741Y-116480483D01*
X131472440Y-116240000D01*
X131472440Y-114740000D01*
X131428162Y-114504683D01*
X131289090Y-114288559D01*
X131076890Y-114143569D01*
X130825000Y-114092560D01*
X129665000Y-114092560D01*
X129665000Y-113940973D01*
X133165032Y-113940973D01*
X133285531Y-114173000D01*
X134493000Y-114173000D01*
X134493000Y-112966183D01*
X134260974Y-112845042D01*
X133845053Y-113017312D01*
X133413179Y-113411510D01*
X133165032Y-113940973D01*
X129665000Y-113940973D01*
X129665000Y-109875000D01*
X130182560Y-109875000D01*
X130182560Y-112375000D01*
X130226838Y-112610317D01*
X130365910Y-112826441D01*
X130578110Y-112971431D01*
X130830000Y-113022440D01*
X133330000Y-113022440D01*
X133565317Y-112978162D01*
X133781441Y-112839090D01*
X133926431Y-112626890D01*
X133977440Y-112375000D01*
X133977440Y-109875000D01*
X133933162Y-109639683D01*
X133834109Y-109485750D01*
X133995000Y-109485750D01*
X133995000Y-110076309D01*
X134091673Y-110309698D01*
X134270301Y-110488327D01*
X134503690Y-110585000D01*
X134969250Y-110585000D01*
X135128000Y-110426250D01*
X135128000Y-109327000D01*
X135382000Y-109327000D01*
X135382000Y-110426250D01*
X135540750Y-110585000D01*
X136006310Y-110585000D01*
X136239699Y-110488327D01*
X136418327Y-110309698D01*
X136515000Y-110076309D01*
X136515000Y-109485750D01*
X136535000Y-109485750D01*
X136535000Y-110076309D01*
X136631673Y-110309698D01*
X136810301Y-110488327D01*
X137043690Y-110585000D01*
X137509250Y-110585000D01*
X137668000Y-110426250D01*
X137668000Y-109327000D01*
X137922000Y-109327000D01*
X137922000Y-110426250D01*
X138080750Y-110585000D01*
X138546310Y-110585000D01*
X138779699Y-110488327D01*
X138958327Y-110309698D01*
X139055000Y-110076309D01*
X139055000Y-109485750D01*
X139075000Y-109485750D01*
X139075000Y-110076309D01*
X139171673Y-110309698D01*
X139350301Y-110488327D01*
X139583690Y-110585000D01*
X140049250Y-110585000D01*
X140208000Y-110426250D01*
X140208000Y-109327000D01*
X139233750Y-109327000D01*
X139075000Y-109485750D01*
X139055000Y-109485750D01*
X138896250Y-109327000D01*
X137922000Y-109327000D01*
X137668000Y-109327000D01*
X136693750Y-109327000D01*
X136535000Y-109485750D01*
X136515000Y-109485750D01*
X136356250Y-109327000D01*
X135382000Y-109327000D01*
X135128000Y-109327000D01*
X134153750Y-109327000D01*
X133995000Y-109485750D01*
X133834109Y-109485750D01*
X133794090Y-109423559D01*
X133581890Y-109278569D01*
X133330000Y-109227560D01*
X130830000Y-109227560D01*
X130594683Y-109271838D01*
X130378559Y-109410910D01*
X130233569Y-109623110D01*
X130182560Y-109875000D01*
X129665000Y-109875000D01*
X129665000Y-109614802D01*
X131397255Y-107882547D01*
X131703405Y-108009672D01*
X132453305Y-108010326D01*
X133146372Y-107723957D01*
X133410790Y-107460000D01*
X133984442Y-107460000D01*
X134026838Y-107685317D01*
G36*
X134747000Y-98679691D02*
X134747000Y-99028250D01*
X134905750Y-99187000D01*
X136271000Y-99187000D01*
X136271000Y-99167000D01*
X136525000Y-99167000D01*
X136525000Y-99187000D01*
X137890250Y-99187000D01*
X138049000Y-99028250D01*
X138049000Y-98679691D01*
X137974569Y-98500000D01*
X140843000Y-98500000D01*
X140843000Y-102938198D01*
X138967401Y-101062599D01*
X138720839Y-100897852D01*
X138430000Y-100840000D01*
X138006427Y-100840000D01*
X137878090Y-100640559D01*
X137665890Y-100495569D01*
X137475431Y-100457000D01*
X137540310Y-100457000D01*
X137773699Y-100360327D01*
X137952327Y-100181698D01*
X138049000Y-99948309D01*
X138049000Y-99599750D01*
X137890250Y-99441000D01*
X136525000Y-99441000D01*
X136525000Y-99461000D01*
X136271000Y-99461000D01*
X136271000Y-99441000D01*
X134905750Y-99441000D01*
X134747000Y-99599750D01*
X134747000Y-99948309D01*
X134843673Y-100181698D01*
X135022301Y-100360327D01*
X135255690Y-100457000D01*
X135315887Y-100457000D01*
X135146683Y-100488838D01*
X134930559Y-100627910D01*
X134785569Y-100840110D01*
X134734560Y-101092000D01*
X134734560Y-101680638D01*
X132175115Y-104240083D01*
X131706695Y-104239674D01*
X131013628Y-104526043D01*
X130482907Y-105055839D01*
X130195328Y-105748405D01*
X130194674Y-106498305D01*
X130322509Y-106807689D01*
X128367599Y-108762599D01*
X128345000Y-108796421D01*
X128345000Y-102458320D01*
X130926285Y-102458320D01*
X131055533Y-102751123D01*
X131755806Y-103019388D01*
X132505435Y-102999250D01*
X133104467Y-102751123D01*
X133233715Y-102458320D01*
X132080000Y-101304605D01*
X130926285Y-102458320D01*
X128345000Y-102458320D01*
X128345000Y-100800806D01*
X130185612Y-100800806D01*
X130205750Y-101550435D01*
X130453877Y-102149467D01*
X130746680Y-102278715D01*
X131900395Y-101125000D01*
X132259605Y-101125000D01*
X133413320Y-102278715D01*
X133706123Y-102149467D01*
X133974388Y-101449194D01*
X133954250Y-100699565D01*
X133706123Y-100100533D01*
X133413320Y-99971285D01*
X132259605Y-101125000D01*
X131900395Y-101125000D01*
X130746680Y-99971285D01*
X130453877Y-100100533D01*
X130185612Y-100800806D01*
X128345000Y-100800806D01*
X128345000Y-99791680D01*
X130926285Y-99791680D01*
X132080000Y-100945395D01*
X133233715Y-99791680D01*
X133104467Y-99498877D01*
X132404194Y-99230612D01*
X131654565Y-99250750D01*
X131055533Y-99498877D01*
X130926285Y-99791680D01*
X128345000Y-99791680D01*
X128345000Y-98500000D01*
X134821431Y-98500000D01*
X134747000Y-98679691D01*
X134747000Y-98679691D01*
G37*
X134747000Y-98679691D02*
X134747000Y-99028250D01*
X134905750Y-99187000D01*
X136271000Y-99187000D01*
X136271000Y-99167000D01*
X136525000Y-99167000D01*
X136525000Y-99187000D01*
X137890250Y-99187000D01*
X138049000Y-99028250D01*
X138049000Y-98679691D01*
X137974569Y-98500000D01*
X140843000Y-98500000D01*
X140843000Y-102938198D01*
X138967401Y-101062599D01*
X138720839Y-100897852D01*
X138430000Y-100840000D01*
X138006427Y-100840000D01*
X137878090Y-100640559D01*
X137665890Y-100495569D01*
X137475431Y-100457000D01*
X137540310Y-100457000D01*
X137773699Y-100360327D01*
X137952327Y-100181698D01*
X138049000Y-99948309D01*
X138049000Y-99599750D01*
X137890250Y-99441000D01*
X136525000Y-99441000D01*
X136525000Y-99461000D01*
X136271000Y-99461000D01*
X136271000Y-99441000D01*
X134905750Y-99441000D01*
X134747000Y-99599750D01*
X134747000Y-99948309D01*
X134843673Y-100181698D01*
X135022301Y-100360327D01*
X135255690Y-100457000D01*
X135315887Y-100457000D01*
X135146683Y-100488838D01*
X134930559Y-100627910D01*
X134785569Y-100840110D01*
X134734560Y-101092000D01*
X134734560Y-101680638D01*
X132175115Y-104240083D01*
X131706695Y-104239674D01*
X131013628Y-104526043D01*
X130482907Y-105055839D01*
X130195328Y-105748405D01*
X130194674Y-106498305D01*
X130322509Y-106807689D01*
X128367599Y-108762599D01*
X128345000Y-108796421D01*
X128345000Y-102458320D01*
X130926285Y-102458320D01*
X131055533Y-102751123D01*
X131755806Y-103019388D01*
X132505435Y-102999250D01*
X133104467Y-102751123D01*
X133233715Y-102458320D01*
X132080000Y-101304605D01*
X130926285Y-102458320D01*
X128345000Y-102458320D01*
X128345000Y-100800806D01*
X130185612Y-100800806D01*
X130205750Y-101550435D01*
X130453877Y-102149467D01*
X130746680Y-102278715D01*
X131900395Y-101125000D01*
X132259605Y-101125000D01*
X133413320Y-102278715D01*
X133706123Y-102149467D01*
X133974388Y-101449194D01*
X133954250Y-100699565D01*
X133706123Y-100100533D01*
X133413320Y-99971285D01*
X132259605Y-101125000D01*
X131900395Y-101125000D01*
X130746680Y-99971285D01*
X130453877Y-100100533D01*
X130185612Y-100800806D01*
X128345000Y-100800806D01*
X128345000Y-99791680D01*
X130926285Y-99791680D01*
X132080000Y-100945395D01*
X133233715Y-99791680D01*
X133104467Y-99498877D01*
X132404194Y-99230612D01*
X131654565Y-99250750D01*
X131055533Y-99498877D01*
X130926285Y-99791680D01*
X128345000Y-99791680D01*
X128345000Y-98500000D01*
X134821431Y-98500000D01*
X134747000Y-98679691D01*
G36*
X141621838Y-107585317D02*
X141760910Y-107801441D01*
X141973110Y-107946431D01*
X141986197Y-107949081D01*
X141773559Y-108085910D01*
X141628569Y-108298110D01*
X141595000Y-108463879D01*
X141595000Y-108323691D01*
X141498327Y-108090302D01*
X141357090Y-107949064D01*
X141411441Y-107914090D01*
X141556431Y-107701890D01*
X141601705Y-107478320D01*
X141621838Y-107585317D01*
X141621838Y-107585317D01*
G37*
X141621838Y-107585317D02*
X141760910Y-107801441D01*
X141973110Y-107946431D01*
X141986197Y-107949081D01*
X141773559Y-108085910D01*
X141628569Y-108298110D01*
X141595000Y-108463879D01*
X141595000Y-108323691D01*
X141498327Y-108090302D01*
X141357090Y-107949064D01*
X141411441Y-107914090D01*
X141556431Y-107701890D01*
X141601705Y-107478320D01*
X141621838Y-107585317D01*
G36*
X145340000Y-105283000D02*
X144197606Y-105283000D01*
X141732000Y-102817394D01*
X141732000Y-98500000D01*
X145340000Y-98500000D01*
X145340000Y-105283000D01*
X145340000Y-105283000D01*
G37*
X145340000Y-105283000D02*
X144197606Y-105283000D01*
X141732000Y-102817394D01*
X141732000Y-98500000D01*
X145340000Y-98500000D01*
X145340000Y-105283000D01*
M02*
