G04 #@! TF.FileFunction,Copper,L1,Top,Signal*
%FSLAX46Y46*%
G04 Gerber Fmt 4.6, Leading zero omitted, Abs format (unit mm)*
G04 Created by KiCad (PCBNEW 4.0.2-4+6225~38~ubuntu14.04.1-stable) date Wed 13 Apr 2016 10:12:00 PM PDT*
%MOMM*%
G01*
G04 APERTURE LIST*
%ADD10C,0.100000*%
%ADD11R,1.250000X1.500000*%
%ADD12R,1.727200X1.727200*%
%ADD13O,1.727200X1.727200*%
%ADD14R,1.500000X1.300000*%
%ADD15R,1.300000X1.500000*%
%ADD16R,2.032000X3.657600*%
%ADD17R,2.032000X1.016000*%
%ADD18R,1.727200X2.032000*%
%ADD19O,1.727200X2.032000*%
%ADD20R,2.500000X2.500000*%
%ADD21C,2.500000*%
%ADD22C,0.600000*%
%ADD23C,0.250000*%
%ADD24C,0.254000*%
G04 APERTURE END LIST*
D10*
D11*
X140335000Y-106700000D03*
X140335000Y-109200000D03*
X135255000Y-106700000D03*
X135255000Y-109200000D03*
X137795000Y-106700000D03*
X137795000Y-109200000D03*
D12*
X134620000Y-116840000D03*
D13*
X134620000Y-114300000D03*
X137160000Y-116840000D03*
X137160000Y-114300000D03*
X139700000Y-116840000D03*
X139700000Y-114300000D03*
X142240000Y-116840000D03*
X142240000Y-114300000D03*
D14*
X137080000Y-119380000D03*
X139780000Y-119380000D03*
D15*
X142875000Y-109300000D03*
X142875000Y-106600000D03*
X132080000Y-109140000D03*
X132080000Y-111840000D03*
D16*
X143002000Y-101600000D03*
D17*
X136398000Y-101600000D03*
X136398000Y-103886000D03*
X136398000Y-99314000D03*
D18*
X144780000Y-123190000D03*
D19*
X142240000Y-123190000D03*
X139700000Y-123190000D03*
X137160000Y-123190000D03*
X134620000Y-123190000D03*
X132080000Y-123190000D03*
X129540000Y-123190000D03*
D20*
X132080000Y-106045000D03*
D21*
X132080000Y-101045000D03*
D22*
X139065000Y-111125000D03*
X144145000Y-102235000D03*
X144145000Y-100965000D03*
X144145000Y-99695000D03*
X142875000Y-100965000D03*
X142875000Y-99695000D03*
X142875000Y-98425000D03*
X144145000Y-98425000D03*
X145415000Y-98425000D03*
X145415000Y-99695000D03*
X145415000Y-100965000D03*
X145415000Y-102235000D03*
X145415000Y-103505000D03*
X145415000Y-104775000D03*
X144145000Y-104775000D03*
X142875000Y-102235000D03*
X143510000Y-103505000D03*
D23*
X135255000Y-107870000D02*
X135255000Y-107950000D01*
X135255000Y-107950000D02*
X135275000Y-106700000D01*
X139780000Y-119380000D02*
X139780000Y-119300000D01*
X139780000Y-119300000D02*
X139860000Y-119380000D01*
X139860000Y-119380000D02*
X140970000Y-119380000D01*
X142240000Y-118110000D02*
X142240000Y-116840000D01*
X140970000Y-119380000D02*
X142240000Y-118110000D01*
X136398000Y-101600000D02*
X138430000Y-101600000D01*
X138430000Y-101600000D02*
X142875000Y-106045000D01*
X142875000Y-106045000D02*
X142875000Y-106600000D01*
X136398000Y-101600000D02*
X135890000Y-101600000D01*
X137795000Y-106700000D02*
X135255000Y-106700000D01*
X135255000Y-106700000D02*
X134720000Y-107235000D01*
X134720000Y-107235000D02*
X132080000Y-109140000D01*
X142240000Y-116840000D02*
X142875000Y-116840000D01*
X135255000Y-106045000D02*
X135255000Y-106700000D01*
X135275000Y-106700000D02*
X135255000Y-106700000D01*
X139780000Y-123110000D02*
X139700000Y-123190000D01*
X132080000Y-109140000D02*
X132080000Y-106045000D01*
X135890000Y-101600000D02*
X132080000Y-105410000D01*
X132080000Y-105410000D02*
X132080000Y-106045000D01*
X140335000Y-109200000D02*
X140355000Y-109200000D01*
X140355000Y-109200000D02*
X141605000Y-107950000D01*
X141605000Y-107950000D02*
X142875000Y-107950000D01*
X142875000Y-107950000D02*
X144780000Y-107950000D01*
X139065000Y-111125000D02*
X137795000Y-109855000D01*
X137795000Y-109855000D02*
X137795000Y-109200000D01*
X136398000Y-103886000D02*
X138811000Y-103886000D01*
X140970000Y-106045000D02*
X140335000Y-106700000D01*
X138811000Y-103886000D02*
X140970000Y-106045000D01*
X136652000Y-104140000D02*
X136398000Y-103886000D01*
X134620000Y-116840000D02*
X134620000Y-123190000D01*
X137160000Y-116840000D02*
X137160000Y-119300000D01*
X137160000Y-119300000D02*
X137080000Y-119380000D01*
X140970000Y-112395000D02*
X140335000Y-111760000D01*
X131445000Y-110490000D02*
X130810000Y-110490000D01*
X133350000Y-110490000D02*
X131445000Y-110490000D01*
X133985000Y-111125000D02*
X133350000Y-110490000D01*
X133350000Y-111125000D02*
X133985000Y-111125000D01*
X135255000Y-111125000D02*
X133350000Y-111125000D01*
X137160000Y-111125000D02*
X135255000Y-111125000D01*
X137795000Y-111760000D02*
X137160000Y-111125000D01*
X140335000Y-111760000D02*
X137795000Y-111760000D01*
X130810000Y-110490000D02*
X130175000Y-111125000D01*
X130175000Y-111125000D02*
X130810000Y-110490000D01*
X130810000Y-110490000D02*
X130175000Y-111125000D01*
X130175000Y-111125000D02*
X130810000Y-110490000D01*
X130810000Y-110490000D02*
X130175000Y-111125000D01*
X130175000Y-111125000D02*
X130175000Y-113030000D01*
X130175000Y-113030000D02*
X130810000Y-113665000D01*
X130810000Y-113665000D02*
X131445000Y-114300000D01*
X131445000Y-114300000D02*
X131445000Y-121285000D01*
X131445000Y-121285000D02*
X129540000Y-123190000D01*
X142875000Y-109300000D02*
X142875000Y-110490000D01*
X140970000Y-115570000D02*
X139700000Y-116840000D01*
X140970000Y-112395000D02*
X140970000Y-115570000D01*
X142875000Y-110490000D02*
X140970000Y-112395000D01*
X142875000Y-109300000D02*
X142955000Y-109220000D01*
X132080000Y-111840000D02*
X132080000Y-114300000D01*
X132080000Y-116840000D02*
X132080000Y-114300000D01*
X139700000Y-114300000D02*
X138430000Y-115570000D01*
X133350000Y-115570000D02*
X132080000Y-116840000D01*
X138430000Y-115570000D02*
X133350000Y-115570000D01*
X132080000Y-123190000D02*
X132080000Y-116840000D01*
X137160000Y-123190000D02*
X139065000Y-121285000D01*
X143510000Y-115570000D02*
X142240000Y-114300000D01*
X143510000Y-118745000D02*
X143510000Y-115570000D01*
X140970000Y-121285000D02*
X143510000Y-118745000D01*
X139065000Y-121285000D02*
X140970000Y-121285000D01*
X142875000Y-99695000D02*
X144145000Y-99695000D01*
X144145000Y-100965000D02*
X144145000Y-102235000D01*
X142875000Y-98425000D02*
X142875000Y-99695000D01*
X142875000Y-100965000D02*
X143002000Y-101092000D01*
X144145000Y-104775000D02*
X143510000Y-103505000D01*
X143002000Y-98552000D02*
X142875000Y-98425000D01*
X144145000Y-98425000D02*
X145415000Y-98425000D01*
X145415000Y-99695000D02*
X145415000Y-100965000D01*
X145415000Y-102235000D02*
X145415000Y-103505000D01*
X145415000Y-104775000D02*
X144145000Y-104775000D01*
D24*
G36*
X145340000Y-121539000D02*
X145065750Y-121539000D01*
X144907000Y-121697750D01*
X144907000Y-123063000D01*
X144927000Y-123063000D01*
X144927000Y-123317000D01*
X144907000Y-123317000D01*
X144907000Y-123337000D01*
X144653000Y-123337000D01*
X144653000Y-123317000D01*
X144633000Y-123317000D01*
X144633000Y-123063000D01*
X144653000Y-123063000D01*
X144653000Y-121697750D01*
X144494250Y-121539000D01*
X143790090Y-121539000D01*
X143556701Y-121635673D01*
X143378073Y-121814302D01*
X143314500Y-121967780D01*
X143299670Y-121945585D01*
X142813489Y-121620729D01*
X142240000Y-121506655D01*
X141719641Y-121610161D01*
X144047401Y-119282401D01*
X144212148Y-119035840D01*
X144221746Y-118987586D01*
X144270000Y-118745000D01*
X144270000Y-115570000D01*
X144212148Y-115279161D01*
X144212148Y-115279160D01*
X144047401Y-115032599D01*
X143673158Y-114658356D01*
X143738600Y-114329359D01*
X143738600Y-114270641D01*
X143624526Y-113697152D01*
X143299670Y-113210971D01*
X142813489Y-112886115D01*
X142240000Y-112772041D01*
X141730000Y-112873486D01*
X141730000Y-112709802D01*
X143412401Y-111027401D01*
X143577148Y-110780839D01*
X143596410Y-110684003D01*
X143760317Y-110653162D01*
X143976441Y-110514090D01*
X144121431Y-110301890D01*
X144172440Y-110050000D01*
X144172440Y-108550000D01*
X144128162Y-108314683D01*
X143989090Y-108098559D01*
X143776890Y-107953569D01*
X143763803Y-107950919D01*
X143976441Y-107814090D01*
X144121431Y-107601890D01*
X144172440Y-107350000D01*
X144172440Y-106172000D01*
X145340000Y-106172000D01*
X145340000Y-121539000D01*
X145340000Y-121539000D01*
G37*
X145340000Y-121539000D02*
X145065750Y-121539000D01*
X144907000Y-121697750D01*
X144907000Y-123063000D01*
X144927000Y-123063000D01*
X144927000Y-123317000D01*
X144907000Y-123317000D01*
X144907000Y-123337000D01*
X144653000Y-123337000D01*
X144653000Y-123317000D01*
X144633000Y-123317000D01*
X144633000Y-123063000D01*
X144653000Y-123063000D01*
X144653000Y-121697750D01*
X144494250Y-121539000D01*
X143790090Y-121539000D01*
X143556701Y-121635673D01*
X143378073Y-121814302D01*
X143314500Y-121967780D01*
X143299670Y-121945585D01*
X142813489Y-121620729D01*
X142240000Y-121506655D01*
X141719641Y-121610161D01*
X144047401Y-119282401D01*
X144212148Y-119035840D01*
X144221746Y-118987586D01*
X144270000Y-118745000D01*
X144270000Y-115570000D01*
X144212148Y-115279161D01*
X144212148Y-115279160D01*
X144047401Y-115032599D01*
X143673158Y-114658356D01*
X143738600Y-114329359D01*
X143738600Y-114270641D01*
X143624526Y-113697152D01*
X143299670Y-113210971D01*
X142813489Y-112886115D01*
X142240000Y-112772041D01*
X141730000Y-112873486D01*
X141730000Y-112709802D01*
X143412401Y-111027401D01*
X143577148Y-110780839D01*
X143596410Y-110684003D01*
X143760317Y-110653162D01*
X143976441Y-110514090D01*
X144121431Y-110301890D01*
X144172440Y-110050000D01*
X144172440Y-108550000D01*
X144128162Y-108314683D01*
X143989090Y-108098559D01*
X143776890Y-107953569D01*
X143763803Y-107950919D01*
X143976441Y-107814090D01*
X144121431Y-107601890D01*
X144172440Y-107350000D01*
X144172440Y-106172000D01*
X145340000Y-106172000D01*
X145340000Y-121539000D01*
G36*
X134747000Y-98679691D02*
X134747000Y-99028250D01*
X134905750Y-99187000D01*
X136271000Y-99187000D01*
X136271000Y-99167000D01*
X136525000Y-99167000D01*
X136525000Y-99187000D01*
X137890250Y-99187000D01*
X138049000Y-99028250D01*
X138049000Y-98679691D01*
X137974569Y-98500000D01*
X140843000Y-98500000D01*
X140843000Y-102938198D01*
X138967401Y-101062599D01*
X138720839Y-100897852D01*
X138430000Y-100840000D01*
X138006427Y-100840000D01*
X137878090Y-100640559D01*
X137665890Y-100495569D01*
X137475431Y-100457000D01*
X137540310Y-100457000D01*
X137773699Y-100360327D01*
X137952327Y-100181698D01*
X138049000Y-99948309D01*
X138049000Y-99599750D01*
X137890250Y-99441000D01*
X136525000Y-99441000D01*
X136525000Y-99461000D01*
X136271000Y-99461000D01*
X136271000Y-99441000D01*
X134905750Y-99441000D01*
X134747000Y-99599750D01*
X134747000Y-99948309D01*
X134843673Y-100181698D01*
X135022301Y-100360327D01*
X135255690Y-100457000D01*
X135315887Y-100457000D01*
X135146683Y-100488838D01*
X134930559Y-100627910D01*
X134785569Y-100840110D01*
X134734560Y-101092000D01*
X134734560Y-101680638D01*
X132267638Y-104147560D01*
X130830000Y-104147560D01*
X130594683Y-104191838D01*
X130378559Y-104330910D01*
X130233569Y-104543110D01*
X130182560Y-104795000D01*
X130182560Y-107295000D01*
X130226838Y-107530317D01*
X130365910Y-107746441D01*
X130578110Y-107891431D01*
X130830000Y-107942440D01*
X130967265Y-107942440D01*
X130833569Y-108138110D01*
X130782560Y-108390000D01*
X130782560Y-109735458D01*
X130519161Y-109787852D01*
X130272599Y-109952599D01*
X129637599Y-110587599D01*
X129472852Y-110834161D01*
X129415000Y-111125000D01*
X129415000Y-113030000D01*
X129472852Y-113320839D01*
X129637599Y-113567401D01*
X130685000Y-114614802D01*
X130685000Y-120970198D01*
X130047579Y-121607619D01*
X129540000Y-121506655D01*
X128966511Y-121620729D01*
X128480330Y-121945585D01*
X128345000Y-122148121D01*
X128345000Y-102378320D01*
X130926285Y-102378320D01*
X131055533Y-102671123D01*
X131755806Y-102939388D01*
X132505435Y-102919250D01*
X133104467Y-102671123D01*
X133233715Y-102378320D01*
X132080000Y-101224605D01*
X130926285Y-102378320D01*
X128345000Y-102378320D01*
X128345000Y-100720806D01*
X130185612Y-100720806D01*
X130205750Y-101470435D01*
X130453877Y-102069467D01*
X130746680Y-102198715D01*
X131900395Y-101045000D01*
X132259605Y-101045000D01*
X133413320Y-102198715D01*
X133706123Y-102069467D01*
X133974388Y-101369194D01*
X133954250Y-100619565D01*
X133706123Y-100020533D01*
X133413320Y-99891285D01*
X132259605Y-101045000D01*
X131900395Y-101045000D01*
X130746680Y-99891285D01*
X130453877Y-100020533D01*
X130185612Y-100720806D01*
X128345000Y-100720806D01*
X128345000Y-99711680D01*
X130926285Y-99711680D01*
X132080000Y-100865395D01*
X133233715Y-99711680D01*
X133104467Y-99418877D01*
X132404194Y-99150612D01*
X131654565Y-99170750D01*
X131055533Y-99418877D01*
X130926285Y-99711680D01*
X128345000Y-99711680D01*
X128345000Y-98500000D01*
X134821431Y-98500000D01*
X134747000Y-98679691D01*
X134747000Y-98679691D01*
G37*
X134747000Y-98679691D02*
X134747000Y-99028250D01*
X134905750Y-99187000D01*
X136271000Y-99187000D01*
X136271000Y-99167000D01*
X136525000Y-99167000D01*
X136525000Y-99187000D01*
X137890250Y-99187000D01*
X138049000Y-99028250D01*
X138049000Y-98679691D01*
X137974569Y-98500000D01*
X140843000Y-98500000D01*
X140843000Y-102938198D01*
X138967401Y-101062599D01*
X138720839Y-100897852D01*
X138430000Y-100840000D01*
X138006427Y-100840000D01*
X137878090Y-100640559D01*
X137665890Y-100495569D01*
X137475431Y-100457000D01*
X137540310Y-100457000D01*
X137773699Y-100360327D01*
X137952327Y-100181698D01*
X138049000Y-99948309D01*
X138049000Y-99599750D01*
X137890250Y-99441000D01*
X136525000Y-99441000D01*
X136525000Y-99461000D01*
X136271000Y-99461000D01*
X136271000Y-99441000D01*
X134905750Y-99441000D01*
X134747000Y-99599750D01*
X134747000Y-99948309D01*
X134843673Y-100181698D01*
X135022301Y-100360327D01*
X135255690Y-100457000D01*
X135315887Y-100457000D01*
X135146683Y-100488838D01*
X134930559Y-100627910D01*
X134785569Y-100840110D01*
X134734560Y-101092000D01*
X134734560Y-101680638D01*
X132267638Y-104147560D01*
X130830000Y-104147560D01*
X130594683Y-104191838D01*
X130378559Y-104330910D01*
X130233569Y-104543110D01*
X130182560Y-104795000D01*
X130182560Y-107295000D01*
X130226838Y-107530317D01*
X130365910Y-107746441D01*
X130578110Y-107891431D01*
X130830000Y-107942440D01*
X130967265Y-107942440D01*
X130833569Y-108138110D01*
X130782560Y-108390000D01*
X130782560Y-109735458D01*
X130519161Y-109787852D01*
X130272599Y-109952599D01*
X129637599Y-110587599D01*
X129472852Y-110834161D01*
X129415000Y-111125000D01*
X129415000Y-113030000D01*
X129472852Y-113320839D01*
X129637599Y-113567401D01*
X130685000Y-114614802D01*
X130685000Y-120970198D01*
X130047579Y-121607619D01*
X129540000Y-121506655D01*
X128966511Y-121620729D01*
X128480330Y-121945585D01*
X128345000Y-122148121D01*
X128345000Y-102378320D01*
X130926285Y-102378320D01*
X131055533Y-102671123D01*
X131755806Y-102939388D01*
X132505435Y-102919250D01*
X133104467Y-102671123D01*
X133233715Y-102378320D01*
X132080000Y-101224605D01*
X130926285Y-102378320D01*
X128345000Y-102378320D01*
X128345000Y-100720806D01*
X130185612Y-100720806D01*
X130205750Y-101470435D01*
X130453877Y-102069467D01*
X130746680Y-102198715D01*
X131900395Y-101045000D01*
X132259605Y-101045000D01*
X133413320Y-102198715D01*
X133706123Y-102069467D01*
X133974388Y-101369194D01*
X133954250Y-100619565D01*
X133706123Y-100020533D01*
X133413320Y-99891285D01*
X132259605Y-101045000D01*
X131900395Y-101045000D01*
X130746680Y-99891285D01*
X130453877Y-100020533D01*
X130185612Y-100720806D01*
X128345000Y-100720806D01*
X128345000Y-99711680D01*
X130926285Y-99711680D01*
X132080000Y-100865395D01*
X133233715Y-99711680D01*
X133104467Y-99418877D01*
X132404194Y-99150612D01*
X131654565Y-99170750D01*
X131055533Y-99418877D01*
X130926285Y-99711680D01*
X128345000Y-99711680D01*
X128345000Y-98500000D01*
X134821431Y-98500000D01*
X134747000Y-98679691D01*
G36*
X137257599Y-112297401D02*
X137504161Y-112462148D01*
X137795000Y-112520000D01*
X140020198Y-112520000D01*
X140210000Y-112709802D01*
X140210000Y-112873486D01*
X139700000Y-112772041D01*
X139126511Y-112886115D01*
X138640330Y-113210971D01*
X138430000Y-113525752D01*
X138219670Y-113210971D01*
X137733489Y-112886115D01*
X137160000Y-112772041D01*
X136586511Y-112886115D01*
X136100330Y-113210971D01*
X135884336Y-113534228D01*
X135826821Y-113411510D01*
X135394947Y-113017312D01*
X134979026Y-112845042D01*
X134747000Y-112966183D01*
X134747000Y-114173000D01*
X134767000Y-114173000D01*
X134767000Y-114427000D01*
X134747000Y-114427000D01*
X134747000Y-114447000D01*
X134493000Y-114447000D01*
X134493000Y-114427000D01*
X133285531Y-114427000D01*
X133165032Y-114659027D01*
X133245529Y-114830781D01*
X133059160Y-114867852D01*
X132840000Y-115014290D01*
X132840000Y-113940973D01*
X133165032Y-113940973D01*
X133285531Y-114173000D01*
X134493000Y-114173000D01*
X134493000Y-112966183D01*
X134260974Y-112845042D01*
X133845053Y-113017312D01*
X133413179Y-113411510D01*
X133165032Y-113940973D01*
X132840000Y-113940973D01*
X132840000Y-113216742D01*
X132965317Y-113193162D01*
X133181441Y-113054090D01*
X133326431Y-112841890D01*
X133377440Y-112590000D01*
X133377440Y-111885000D01*
X136845198Y-111885000D01*
X137257599Y-112297401D01*
X137257599Y-112297401D01*
G37*
X137257599Y-112297401D02*
X137504161Y-112462148D01*
X137795000Y-112520000D01*
X140020198Y-112520000D01*
X140210000Y-112709802D01*
X140210000Y-112873486D01*
X139700000Y-112772041D01*
X139126511Y-112886115D01*
X138640330Y-113210971D01*
X138430000Y-113525752D01*
X138219670Y-113210971D01*
X137733489Y-112886115D01*
X137160000Y-112772041D01*
X136586511Y-112886115D01*
X136100330Y-113210971D01*
X135884336Y-113534228D01*
X135826821Y-113411510D01*
X135394947Y-113017312D01*
X134979026Y-112845042D01*
X134747000Y-112966183D01*
X134747000Y-114173000D01*
X134767000Y-114173000D01*
X134767000Y-114427000D01*
X134747000Y-114427000D01*
X134747000Y-114447000D01*
X134493000Y-114447000D01*
X134493000Y-114427000D01*
X133285531Y-114427000D01*
X133165032Y-114659027D01*
X133245529Y-114830781D01*
X133059160Y-114867852D01*
X132840000Y-115014290D01*
X132840000Y-113940973D01*
X133165032Y-113940973D01*
X133285531Y-114173000D01*
X134493000Y-114173000D01*
X134493000Y-112966183D01*
X134260974Y-112845042D01*
X133845053Y-113017312D01*
X133413179Y-113411510D01*
X133165032Y-113940973D01*
X132840000Y-113940973D01*
X132840000Y-113216742D01*
X132965317Y-113193162D01*
X133181441Y-113054090D01*
X133326431Y-112841890D01*
X133377440Y-112590000D01*
X133377440Y-111885000D01*
X136845198Y-111885000D01*
X137257599Y-112297401D01*
G36*
X139106838Y-107685317D02*
X139245910Y-107901441D01*
X139314006Y-107947969D01*
X139171673Y-108090302D01*
X139075000Y-108323691D01*
X139075000Y-108914250D01*
X139233750Y-109073000D01*
X140208000Y-109073000D01*
X140208000Y-109053000D01*
X140462000Y-109053000D01*
X140462000Y-109073000D01*
X140482000Y-109073000D01*
X140482000Y-109327000D01*
X140462000Y-109327000D01*
X140462000Y-110426250D01*
X140620750Y-110585000D01*
X141086310Y-110585000D01*
X141319699Y-110488327D01*
X141498327Y-110309698D01*
X141586412Y-110097043D01*
X141621838Y-110285317D01*
X141760910Y-110501441D01*
X141777453Y-110512745D01*
X140970000Y-111320198D01*
X140872401Y-111222599D01*
X140625839Y-111057852D01*
X140335000Y-111000000D01*
X138109802Y-111000000D01*
X137697401Y-110587599D01*
X137583055Y-110511195D01*
X137668000Y-110426250D01*
X137668000Y-109327000D01*
X137922000Y-109327000D01*
X137922000Y-110426250D01*
X138080750Y-110585000D01*
X138546310Y-110585000D01*
X138779699Y-110488327D01*
X138958327Y-110309698D01*
X139055000Y-110076309D01*
X139055000Y-109485750D01*
X139075000Y-109485750D01*
X139075000Y-110076309D01*
X139171673Y-110309698D01*
X139350301Y-110488327D01*
X139583690Y-110585000D01*
X140049250Y-110585000D01*
X140208000Y-110426250D01*
X140208000Y-109327000D01*
X139233750Y-109327000D01*
X139075000Y-109485750D01*
X139055000Y-109485750D01*
X138896250Y-109327000D01*
X137922000Y-109327000D01*
X137668000Y-109327000D01*
X136693750Y-109327000D01*
X136535000Y-109485750D01*
X136535000Y-110076309D01*
X136631673Y-110309698D01*
X136686975Y-110365000D01*
X136363025Y-110365000D01*
X136418327Y-110309698D01*
X136515000Y-110076309D01*
X136515000Y-109485750D01*
X136356250Y-109327000D01*
X135382000Y-109327000D01*
X135382000Y-109347000D01*
X135128000Y-109347000D01*
X135128000Y-109327000D01*
X134153750Y-109327000D01*
X133995000Y-109485750D01*
X133995000Y-110060198D01*
X133887401Y-109952599D01*
X133640839Y-109787852D01*
X133377440Y-109735458D01*
X133377440Y-109140984D01*
X133995000Y-108695358D01*
X133995000Y-108914250D01*
X134153750Y-109073000D01*
X135128000Y-109073000D01*
X135128000Y-109053000D01*
X135382000Y-109053000D01*
X135382000Y-109073000D01*
X136356250Y-109073000D01*
X136515000Y-108914250D01*
X136515000Y-108323691D01*
X136418327Y-108090302D01*
X136277090Y-107949064D01*
X136331441Y-107914090D01*
X136476431Y-107701890D01*
X136524910Y-107462491D01*
X136566838Y-107685317D01*
X136705910Y-107901441D01*
X136774006Y-107947969D01*
X136631673Y-108090302D01*
X136535000Y-108323691D01*
X136535000Y-108914250D01*
X136693750Y-109073000D01*
X137668000Y-109073000D01*
X137668000Y-109053000D01*
X137922000Y-109053000D01*
X137922000Y-109073000D01*
X138896250Y-109073000D01*
X139055000Y-108914250D01*
X139055000Y-108323691D01*
X138958327Y-108090302D01*
X138817090Y-107949064D01*
X138871441Y-107914090D01*
X139016431Y-107701890D01*
X139064910Y-107462491D01*
X139106838Y-107685317D01*
X139106838Y-107685317D01*
G37*
X139106838Y-107685317D02*
X139245910Y-107901441D01*
X139314006Y-107947969D01*
X139171673Y-108090302D01*
X139075000Y-108323691D01*
X139075000Y-108914250D01*
X139233750Y-109073000D01*
X140208000Y-109073000D01*
X140208000Y-109053000D01*
X140462000Y-109053000D01*
X140462000Y-109073000D01*
X140482000Y-109073000D01*
X140482000Y-109327000D01*
X140462000Y-109327000D01*
X140462000Y-110426250D01*
X140620750Y-110585000D01*
X141086310Y-110585000D01*
X141319699Y-110488327D01*
X141498327Y-110309698D01*
X141586412Y-110097043D01*
X141621838Y-110285317D01*
X141760910Y-110501441D01*
X141777453Y-110512745D01*
X140970000Y-111320198D01*
X140872401Y-111222599D01*
X140625839Y-111057852D01*
X140335000Y-111000000D01*
X138109802Y-111000000D01*
X137697401Y-110587599D01*
X137583055Y-110511195D01*
X137668000Y-110426250D01*
X137668000Y-109327000D01*
X137922000Y-109327000D01*
X137922000Y-110426250D01*
X138080750Y-110585000D01*
X138546310Y-110585000D01*
X138779699Y-110488327D01*
X138958327Y-110309698D01*
X139055000Y-110076309D01*
X139055000Y-109485750D01*
X139075000Y-109485750D01*
X139075000Y-110076309D01*
X139171673Y-110309698D01*
X139350301Y-110488327D01*
X139583690Y-110585000D01*
X140049250Y-110585000D01*
X140208000Y-110426250D01*
X140208000Y-109327000D01*
X139233750Y-109327000D01*
X139075000Y-109485750D01*
X139055000Y-109485750D01*
X138896250Y-109327000D01*
X137922000Y-109327000D01*
X137668000Y-109327000D01*
X136693750Y-109327000D01*
X136535000Y-109485750D01*
X136535000Y-110076309D01*
X136631673Y-110309698D01*
X136686975Y-110365000D01*
X136363025Y-110365000D01*
X136418327Y-110309698D01*
X136515000Y-110076309D01*
X136515000Y-109485750D01*
X136356250Y-109327000D01*
X135382000Y-109327000D01*
X135382000Y-109347000D01*
X135128000Y-109347000D01*
X135128000Y-109327000D01*
X134153750Y-109327000D01*
X133995000Y-109485750D01*
X133995000Y-110060198D01*
X133887401Y-109952599D01*
X133640839Y-109787852D01*
X133377440Y-109735458D01*
X133377440Y-109140984D01*
X133995000Y-108695358D01*
X133995000Y-108914250D01*
X134153750Y-109073000D01*
X135128000Y-109073000D01*
X135128000Y-109053000D01*
X135382000Y-109053000D01*
X135382000Y-109073000D01*
X136356250Y-109073000D01*
X136515000Y-108914250D01*
X136515000Y-108323691D01*
X136418327Y-108090302D01*
X136277090Y-107949064D01*
X136331441Y-107914090D01*
X136476431Y-107701890D01*
X136524910Y-107462491D01*
X136566838Y-107685317D01*
X136705910Y-107901441D01*
X136774006Y-107947969D01*
X136631673Y-108090302D01*
X136535000Y-108323691D01*
X136535000Y-108914250D01*
X136693750Y-109073000D01*
X137668000Y-109073000D01*
X137668000Y-109053000D01*
X137922000Y-109053000D01*
X137922000Y-109073000D01*
X138896250Y-109073000D01*
X139055000Y-108914250D01*
X139055000Y-108323691D01*
X138958327Y-108090302D01*
X138817090Y-107949064D01*
X138871441Y-107914090D01*
X139016431Y-107701890D01*
X139064910Y-107462491D01*
X139106838Y-107685317D01*
G36*
X141621838Y-107585317D02*
X141760910Y-107801441D01*
X141973110Y-107946431D01*
X141986197Y-107949081D01*
X141773559Y-108085910D01*
X141628569Y-108298110D01*
X141595000Y-108463879D01*
X141595000Y-108323691D01*
X141498327Y-108090302D01*
X141357090Y-107949064D01*
X141411441Y-107914090D01*
X141556431Y-107701890D01*
X141601705Y-107478320D01*
X141621838Y-107585317D01*
X141621838Y-107585317D01*
G37*
X141621838Y-107585317D02*
X141760910Y-107801441D01*
X141973110Y-107946431D01*
X141986197Y-107949081D01*
X141773559Y-108085910D01*
X141628569Y-108298110D01*
X141595000Y-108463879D01*
X141595000Y-108323691D01*
X141498327Y-108090302D01*
X141357090Y-107949064D01*
X141411441Y-107914090D01*
X141556431Y-107701890D01*
X141601705Y-107478320D01*
X141621838Y-107585317D01*
G36*
X145340000Y-105283000D02*
X144197606Y-105283000D01*
X141732000Y-102817394D01*
X141732000Y-98500000D01*
X145340000Y-98500000D01*
X145340000Y-105283000D01*
X145340000Y-105283000D01*
G37*
X145340000Y-105283000D02*
X144197606Y-105283000D01*
X141732000Y-102817394D01*
X141732000Y-98500000D01*
X145340000Y-98500000D01*
X145340000Y-105283000D01*
M02*
