G04 #@! TF.FileFunction,Copper,L2,Bot,Signal*
%FSLAX46Y46*%
G04 Gerber Fmt 4.6, Leading zero omitted, Abs format (unit mm)*
G04 Created by KiCad (PCBNEW 4.0.2-4+6225~38~ubuntu14.04.1-stable) date Wed 13 Apr 2016 10:12:00 PM PDT*
%MOMM*%
G01*
G04 APERTURE LIST*
%ADD10C,0.100000*%
%ADD11R,1.727200X1.727200*%
%ADD12O,1.727200X1.727200*%
%ADD13R,1.727200X2.032000*%
%ADD14O,1.727200X2.032000*%
%ADD15R,2.500000X2.500000*%
%ADD16C,2.500000*%
%ADD17C,0.600000*%
%ADD18C,0.250000*%
%ADD19C,0.254000*%
G04 APERTURE END LIST*
D10*
D11*
X134620000Y-116840000D03*
D12*
X134620000Y-114300000D03*
X137160000Y-116840000D03*
X137160000Y-114300000D03*
X139700000Y-116840000D03*
X139700000Y-114300000D03*
X142240000Y-116840000D03*
X142240000Y-114300000D03*
D13*
X144780000Y-123190000D03*
D14*
X142240000Y-123190000D03*
X139700000Y-123190000D03*
X137160000Y-123190000D03*
X134620000Y-123190000D03*
X132080000Y-123190000D03*
X129540000Y-123190000D03*
D15*
X132080000Y-106045000D03*
D16*
X132080000Y-101045000D03*
D17*
X139065000Y-111125000D03*
X144145000Y-102235000D03*
X144145000Y-100965000D03*
X144145000Y-99695000D03*
X142875000Y-100965000D03*
X142875000Y-99695000D03*
X142875000Y-98425000D03*
X144145000Y-98425000D03*
X145415000Y-98425000D03*
X145415000Y-99695000D03*
X145415000Y-100965000D03*
X145415000Y-102235000D03*
X145415000Y-103505000D03*
X145415000Y-104775000D03*
X144145000Y-104775000D03*
X142875000Y-102235000D03*
X143510000Y-103505000D03*
D18*
X142240000Y-116840000D02*
X144145000Y-114935000D01*
X144145000Y-114935000D02*
X144145000Y-113030000D01*
X138430000Y-121285000D02*
X139700000Y-122555000D01*
X132715000Y-121285000D02*
X138430000Y-121285000D01*
X130810000Y-119380000D02*
X132715000Y-121285000D01*
X139700000Y-122555000D02*
X139700000Y-123190000D01*
X144145000Y-113030000D02*
X143510000Y-112395000D01*
X130810000Y-106680000D02*
X130810000Y-119380000D01*
X143510000Y-112395000D02*
X135890000Y-112395000D01*
X132080000Y-108585000D02*
X132080000Y-106045000D01*
X135890000Y-112395000D02*
X132080000Y-108585000D01*
X132080000Y-106045000D02*
X131445000Y-106045000D01*
X131445000Y-106045000D02*
X130810000Y-106680000D01*
X132080000Y-101045000D02*
X132160000Y-101045000D01*
X132160000Y-101045000D02*
X139065000Y-107950000D01*
X139065000Y-107950000D02*
X139065000Y-111125000D01*
X140970000Y-122174000D02*
X140970000Y-124333000D01*
X143256000Y-124714000D02*
X144780000Y-123190000D01*
X141351000Y-124714000D02*
X143256000Y-124714000D01*
X140970000Y-124333000D02*
X141351000Y-124714000D01*
X142240000Y-123190000D02*
X142240000Y-121920000D01*
X138430000Y-115570000D02*
X137160000Y-114300000D01*
X138430000Y-118110000D02*
X138430000Y-115570000D01*
X142240000Y-121920000D02*
X138430000Y-118110000D01*
X144145000Y-102235000D02*
X144145000Y-102870000D01*
X144145000Y-99695000D02*
X144145000Y-100965000D01*
X142875000Y-99695000D02*
X142875000Y-100965000D01*
X142875000Y-98425000D02*
X144145000Y-98425000D01*
X145415000Y-98425000D02*
X145415000Y-99695000D01*
X145415000Y-100965000D02*
X145415000Y-102235000D01*
X145415000Y-103505000D02*
X145415000Y-104775000D01*
X142875000Y-103505000D02*
X142875000Y-102235000D01*
X143510000Y-103505000D02*
X142875000Y-103505000D01*
D19*
G36*
X145340000Y-105283000D02*
X144197606Y-105283000D01*
X141732000Y-102817394D01*
X141732000Y-98500000D01*
X145340000Y-98500000D01*
X145340000Y-105283000D01*
X145340000Y-105283000D01*
G37*
X145340000Y-105283000D02*
X144197606Y-105283000D01*
X141732000Y-102817394D01*
X141732000Y-98500000D01*
X145340000Y-98500000D01*
X145340000Y-105283000D01*
G36*
X141147312Y-124385000D02*
X140792688Y-124385000D01*
X140970000Y-124119634D01*
X141147312Y-124385000D01*
X141147312Y-124385000D01*
G37*
X141147312Y-124385000D02*
X140792688Y-124385000D01*
X140970000Y-124119634D01*
X141147312Y-124385000D01*
G36*
X140843000Y-103505000D02*
X140853006Y-103554410D01*
X140880197Y-103594803D01*
X143420197Y-106134803D01*
X143462211Y-106162666D01*
X143510000Y-106172000D01*
X145340000Y-106172000D01*
X145340000Y-121539000D01*
X145065750Y-121539000D01*
X144907000Y-121697750D01*
X144907000Y-123063000D01*
X144927000Y-123063000D01*
X144927000Y-123317000D01*
X144907000Y-123317000D01*
X144907000Y-123337000D01*
X144653000Y-123337000D01*
X144653000Y-123317000D01*
X144633000Y-123317000D01*
X144633000Y-123063000D01*
X144653000Y-123063000D01*
X144653000Y-121697750D01*
X144494250Y-121539000D01*
X143790090Y-121539000D01*
X143556701Y-121635673D01*
X143378073Y-121814302D01*
X143314500Y-121967780D01*
X143299670Y-121945585D01*
X142959935Y-121718581D01*
X142942148Y-121629161D01*
X142777401Y-121382599D01*
X139752348Y-118357546D01*
X140273489Y-118253885D01*
X140759670Y-117929029D01*
X140970000Y-117614248D01*
X141180330Y-117929029D01*
X141666511Y-118253885D01*
X142240000Y-118367959D01*
X142813489Y-118253885D01*
X143299670Y-117929029D01*
X143624526Y-117442848D01*
X143738600Y-116869359D01*
X143738600Y-116810641D01*
X143673158Y-116481644D01*
X144682401Y-115472401D01*
X144847148Y-115225839D01*
X144905000Y-114935000D01*
X144905000Y-113030000D01*
X144847148Y-112739161D01*
X144682401Y-112492599D01*
X144047401Y-111857599D01*
X143800839Y-111692852D01*
X143510000Y-111635000D01*
X136204802Y-111635000D01*
X132840000Y-108270198D01*
X132840000Y-107942440D01*
X133330000Y-107942440D01*
X133565317Y-107898162D01*
X133781441Y-107759090D01*
X133926431Y-107546890D01*
X133977440Y-107295000D01*
X133977440Y-104795000D01*
X133933162Y-104559683D01*
X133794090Y-104343559D01*
X133581890Y-104198569D01*
X133330000Y-104147560D01*
X130830000Y-104147560D01*
X130594683Y-104191838D01*
X130378559Y-104330910D01*
X130233569Y-104543110D01*
X130182560Y-104795000D01*
X130182560Y-106277352D01*
X130107852Y-106389161D01*
X130050000Y-106680000D01*
X130050000Y-119380000D01*
X130107852Y-119670839D01*
X130272599Y-119917401D01*
X131898046Y-121542848D01*
X131506511Y-121620729D01*
X131020330Y-121945585D01*
X130810000Y-122260366D01*
X130599670Y-121945585D01*
X130113489Y-121620729D01*
X129540000Y-121506655D01*
X128966511Y-121620729D01*
X128480330Y-121945585D01*
X128345000Y-122148121D01*
X128345000Y-102378320D01*
X130926285Y-102378320D01*
X131055533Y-102671123D01*
X131755806Y-102939388D01*
X132505435Y-102919250D01*
X133104467Y-102671123D01*
X133233715Y-102378320D01*
X132080000Y-101224605D01*
X130926285Y-102378320D01*
X128345000Y-102378320D01*
X128345000Y-100720806D01*
X130185612Y-100720806D01*
X130205750Y-101470435D01*
X130453877Y-102069467D01*
X130746680Y-102198715D01*
X131900395Y-101045000D01*
X132259605Y-101045000D01*
X133413320Y-102198715D01*
X133706123Y-102069467D01*
X133974388Y-101369194D01*
X133954250Y-100619565D01*
X133706123Y-100020533D01*
X133413320Y-99891285D01*
X132259605Y-101045000D01*
X131900395Y-101045000D01*
X130746680Y-99891285D01*
X130453877Y-100020533D01*
X130185612Y-100720806D01*
X128345000Y-100720806D01*
X128345000Y-99711680D01*
X130926285Y-99711680D01*
X132080000Y-100865395D01*
X133233715Y-99711680D01*
X133104467Y-99418877D01*
X132404194Y-99150612D01*
X131654565Y-99170750D01*
X131055533Y-99418877D01*
X130926285Y-99711680D01*
X128345000Y-99711680D01*
X128345000Y-98500000D01*
X140843000Y-98500000D01*
X140843000Y-103505000D01*
X140843000Y-103505000D01*
G37*
X140843000Y-103505000D02*
X140853006Y-103554410D01*
X140880197Y-103594803D01*
X143420197Y-106134803D01*
X143462211Y-106162666D01*
X143510000Y-106172000D01*
X145340000Y-106172000D01*
X145340000Y-121539000D01*
X145065750Y-121539000D01*
X144907000Y-121697750D01*
X144907000Y-123063000D01*
X144927000Y-123063000D01*
X144927000Y-123317000D01*
X144907000Y-123317000D01*
X144907000Y-123337000D01*
X144653000Y-123337000D01*
X144653000Y-123317000D01*
X144633000Y-123317000D01*
X144633000Y-123063000D01*
X144653000Y-123063000D01*
X144653000Y-121697750D01*
X144494250Y-121539000D01*
X143790090Y-121539000D01*
X143556701Y-121635673D01*
X143378073Y-121814302D01*
X143314500Y-121967780D01*
X143299670Y-121945585D01*
X142959935Y-121718581D01*
X142942148Y-121629161D01*
X142777401Y-121382599D01*
X139752348Y-118357546D01*
X140273489Y-118253885D01*
X140759670Y-117929029D01*
X140970000Y-117614248D01*
X141180330Y-117929029D01*
X141666511Y-118253885D01*
X142240000Y-118367959D01*
X142813489Y-118253885D01*
X143299670Y-117929029D01*
X143624526Y-117442848D01*
X143738600Y-116869359D01*
X143738600Y-116810641D01*
X143673158Y-116481644D01*
X144682401Y-115472401D01*
X144847148Y-115225839D01*
X144905000Y-114935000D01*
X144905000Y-113030000D01*
X144847148Y-112739161D01*
X144682401Y-112492599D01*
X144047401Y-111857599D01*
X143800839Y-111692852D01*
X143510000Y-111635000D01*
X136204802Y-111635000D01*
X132840000Y-108270198D01*
X132840000Y-107942440D01*
X133330000Y-107942440D01*
X133565317Y-107898162D01*
X133781441Y-107759090D01*
X133926431Y-107546890D01*
X133977440Y-107295000D01*
X133977440Y-104795000D01*
X133933162Y-104559683D01*
X133794090Y-104343559D01*
X133581890Y-104198569D01*
X133330000Y-104147560D01*
X130830000Y-104147560D01*
X130594683Y-104191838D01*
X130378559Y-104330910D01*
X130233569Y-104543110D01*
X130182560Y-104795000D01*
X130182560Y-106277352D01*
X130107852Y-106389161D01*
X130050000Y-106680000D01*
X130050000Y-119380000D01*
X130107852Y-119670839D01*
X130272599Y-119917401D01*
X131898046Y-121542848D01*
X131506511Y-121620729D01*
X131020330Y-121945585D01*
X130810000Y-122260366D01*
X130599670Y-121945585D01*
X130113489Y-121620729D01*
X129540000Y-121506655D01*
X128966511Y-121620729D01*
X128480330Y-121945585D01*
X128345000Y-122148121D01*
X128345000Y-102378320D01*
X130926285Y-102378320D01*
X131055533Y-102671123D01*
X131755806Y-102939388D01*
X132505435Y-102919250D01*
X133104467Y-102671123D01*
X133233715Y-102378320D01*
X132080000Y-101224605D01*
X130926285Y-102378320D01*
X128345000Y-102378320D01*
X128345000Y-100720806D01*
X130185612Y-100720806D01*
X130205750Y-101470435D01*
X130453877Y-102069467D01*
X130746680Y-102198715D01*
X131900395Y-101045000D01*
X132259605Y-101045000D01*
X133413320Y-102198715D01*
X133706123Y-102069467D01*
X133974388Y-101369194D01*
X133954250Y-100619565D01*
X133706123Y-100020533D01*
X133413320Y-99891285D01*
X132259605Y-101045000D01*
X131900395Y-101045000D01*
X130746680Y-99891285D01*
X130453877Y-100020533D01*
X130185612Y-100720806D01*
X128345000Y-100720806D01*
X128345000Y-99711680D01*
X130926285Y-99711680D01*
X132080000Y-100865395D01*
X133233715Y-99711680D01*
X133104467Y-99418877D01*
X132404194Y-99150612D01*
X131654565Y-99170750D01*
X131055533Y-99418877D01*
X130926285Y-99711680D01*
X128345000Y-99711680D01*
X128345000Y-98500000D01*
X140843000Y-98500000D01*
X140843000Y-103505000D01*
G36*
X135352599Y-112932401D02*
X135599161Y-113097148D01*
X135890000Y-113155000D01*
X136184096Y-113155000D01*
X136100330Y-113210971D01*
X135884336Y-113534228D01*
X135826821Y-113411510D01*
X135394947Y-113017312D01*
X134979026Y-112845042D01*
X134747000Y-112966183D01*
X134747000Y-114173000D01*
X134767000Y-114173000D01*
X134767000Y-114427000D01*
X134747000Y-114427000D01*
X134747000Y-114447000D01*
X134493000Y-114447000D01*
X134493000Y-114427000D01*
X133285531Y-114427000D01*
X133165032Y-114659027D01*
X133413179Y-115188490D01*
X133599433Y-115358495D01*
X133521083Y-115373238D01*
X133304959Y-115512310D01*
X133159969Y-115724510D01*
X133108960Y-115976400D01*
X133108960Y-117703600D01*
X133153238Y-117938917D01*
X133292310Y-118155041D01*
X133504510Y-118300031D01*
X133756400Y-118351040D01*
X135483600Y-118351040D01*
X135718917Y-118306762D01*
X135935041Y-118167690D01*
X136080031Y-117955490D01*
X136088864Y-117911869D01*
X136100330Y-117929029D01*
X136586511Y-118253885D01*
X137160000Y-118367959D01*
X137699948Y-118260557D01*
X137727852Y-118400839D01*
X137892599Y-118647401D01*
X141186596Y-121941398D01*
X141180330Y-121945585D01*
X140970000Y-122260366D01*
X140759670Y-121945585D01*
X140273489Y-121620729D01*
X139733026Y-121513224D01*
X138967401Y-120747599D01*
X138720839Y-120582852D01*
X138430000Y-120525000D01*
X133029802Y-120525000D01*
X131570000Y-119065198D01*
X131570000Y-113940973D01*
X133165032Y-113940973D01*
X133285531Y-114173000D01*
X134493000Y-114173000D01*
X134493000Y-112966183D01*
X134260974Y-112845042D01*
X133845053Y-113017312D01*
X133413179Y-113411510D01*
X133165032Y-113940973D01*
X131570000Y-113940973D01*
X131570000Y-109149802D01*
X135352599Y-112932401D01*
X135352599Y-112932401D01*
G37*
X135352599Y-112932401D02*
X135599161Y-113097148D01*
X135890000Y-113155000D01*
X136184096Y-113155000D01*
X136100330Y-113210971D01*
X135884336Y-113534228D01*
X135826821Y-113411510D01*
X135394947Y-113017312D01*
X134979026Y-112845042D01*
X134747000Y-112966183D01*
X134747000Y-114173000D01*
X134767000Y-114173000D01*
X134767000Y-114427000D01*
X134747000Y-114427000D01*
X134747000Y-114447000D01*
X134493000Y-114447000D01*
X134493000Y-114427000D01*
X133285531Y-114427000D01*
X133165032Y-114659027D01*
X133413179Y-115188490D01*
X133599433Y-115358495D01*
X133521083Y-115373238D01*
X133304959Y-115512310D01*
X133159969Y-115724510D01*
X133108960Y-115976400D01*
X133108960Y-117703600D01*
X133153238Y-117938917D01*
X133292310Y-118155041D01*
X133504510Y-118300031D01*
X133756400Y-118351040D01*
X135483600Y-118351040D01*
X135718917Y-118306762D01*
X135935041Y-118167690D01*
X136080031Y-117955490D01*
X136088864Y-117911869D01*
X136100330Y-117929029D01*
X136586511Y-118253885D01*
X137160000Y-118367959D01*
X137699948Y-118260557D01*
X137727852Y-118400839D01*
X137892599Y-118647401D01*
X141186596Y-121941398D01*
X141180330Y-121945585D01*
X140970000Y-122260366D01*
X140759670Y-121945585D01*
X140273489Y-121620729D01*
X139733026Y-121513224D01*
X138967401Y-120747599D01*
X138720839Y-120582852D01*
X138430000Y-120525000D01*
X133029802Y-120525000D01*
X131570000Y-119065198D01*
X131570000Y-113940973D01*
X133165032Y-113940973D01*
X133285531Y-114173000D01*
X134493000Y-114173000D01*
X134493000Y-112966183D01*
X134260974Y-112845042D01*
X133845053Y-113017312D01*
X133413179Y-113411510D01*
X133165032Y-113940973D01*
X131570000Y-113940973D01*
X131570000Y-109149802D01*
X135352599Y-112932401D01*
M02*
