G04 #@! TF.FileFunction,Copper,L2,Bot,Signal*
%FSLAX46Y46*%
G04 Gerber Fmt 4.6, Leading zero omitted, Abs format (unit mm)*
G04 Created by KiCad (PCBNEW 4.0.2-4+6225~38~ubuntu14.04.1-stable) date Sat 30 Apr 2016 11:35:10 AM PDT*
%MOMM*%
G01*
G04 APERTURE LIST*
%ADD10C,0.100000*%
%ADD11R,1.727200X1.727200*%
%ADD12O,1.727200X1.727200*%
%ADD13R,1.727200X2.032000*%
%ADD14O,1.727200X2.032000*%
%ADD15C,2.500000*%
%ADD16R,2.500000X2.500000*%
%ADD17C,0.600000*%
%ADD18C,0.250000*%
%ADD19C,0.254000*%
G04 APERTURE END LIST*
D10*
D11*
X134620000Y-116840000D03*
D12*
X134620000Y-114300000D03*
X137160000Y-116840000D03*
X137160000Y-114300000D03*
X139700000Y-116840000D03*
X139700000Y-114300000D03*
X142240000Y-116840000D03*
X142240000Y-114300000D03*
D13*
X144780000Y-123190000D03*
D14*
X142240000Y-123190000D03*
X139700000Y-123190000D03*
X137160000Y-123190000D03*
X134620000Y-123190000D03*
X132080000Y-123190000D03*
X129540000Y-123190000D03*
D15*
X132080000Y-101125000D03*
D16*
X132080000Y-111125000D03*
D15*
X132080000Y-106125000D03*
D17*
X144780000Y-106680000D03*
X139065000Y-111125000D03*
X138430000Y-120650000D03*
X140335000Y-121285000D03*
X144145000Y-102235000D03*
X144145000Y-100965000D03*
X144145000Y-99695000D03*
X142875000Y-100965000D03*
X142875000Y-99695000D03*
X142875000Y-98425000D03*
X144145000Y-98425000D03*
X145415000Y-98425000D03*
X145415000Y-99695000D03*
X145415000Y-100965000D03*
X145415000Y-102235000D03*
X145415000Y-103505000D03*
X145415000Y-104775000D03*
X144145000Y-104775000D03*
X142875000Y-102235000D03*
X143510000Y-103505000D03*
X134620000Y-104775000D03*
D18*
X144145000Y-114935000D02*
X142240000Y-116840000D01*
X144145000Y-107315000D02*
X144145000Y-114935000D01*
X144780000Y-106680000D02*
X144145000Y-107315000D01*
X139700000Y-122555000D02*
X139700000Y-123190000D01*
X132080000Y-106045000D02*
X131445000Y-106045000D01*
X132080000Y-101045000D02*
X132160000Y-101045000D01*
X132160000Y-101045000D02*
X139065000Y-107950000D01*
X139065000Y-107950000D02*
X139065000Y-111125000D01*
X140970000Y-122174000D02*
X140970000Y-124333000D01*
X143256000Y-124714000D02*
X144780000Y-123190000D01*
X141351000Y-124714000D02*
X143256000Y-124714000D01*
X140970000Y-124333000D02*
X141351000Y-124714000D01*
X142240000Y-123190000D02*
X142240000Y-121920000D01*
X138430000Y-115570000D02*
X137160000Y-114300000D01*
X138430000Y-118110000D02*
X138430000Y-115570000D01*
X142240000Y-121920000D02*
X138430000Y-118110000D01*
X129540000Y-123190000D02*
X129540000Y-121285000D01*
X130175000Y-120650000D02*
X138430000Y-120650000D01*
X129540000Y-121285000D02*
X130175000Y-120650000D01*
X138430000Y-121285000D02*
X137160000Y-122555000D01*
X140335000Y-121285000D02*
X138430000Y-121285000D01*
X137160000Y-122555000D02*
X137160000Y-123190000D01*
X144145000Y-102235000D02*
X144145000Y-102870000D01*
X144145000Y-99695000D02*
X144145000Y-100965000D01*
X142875000Y-99695000D02*
X142875000Y-100965000D01*
X142875000Y-98425000D02*
X144145000Y-98425000D01*
X145415000Y-98425000D02*
X145415000Y-99695000D01*
X145415000Y-100965000D02*
X145415000Y-102235000D01*
X145415000Y-103505000D02*
X145415000Y-104775000D01*
X142875000Y-103505000D02*
X142875000Y-102235000D01*
X143510000Y-103505000D02*
X142875000Y-103505000D01*
X134620000Y-109220000D02*
X132715000Y-111125000D01*
X134620000Y-104775000D02*
X134620000Y-109220000D01*
X132715000Y-111125000D02*
X132080000Y-111125000D01*
D19*
G36*
X145340000Y-105283000D02*
X144197606Y-105283000D01*
X141732000Y-102817394D01*
X141732000Y-98500000D01*
X145340000Y-98500000D01*
X145340000Y-105283000D01*
X145340000Y-105283000D01*
G37*
X145340000Y-105283000D02*
X144197606Y-105283000D01*
X141732000Y-102817394D01*
X141732000Y-98500000D01*
X145340000Y-98500000D01*
X145340000Y-105283000D01*
G36*
X141147312Y-124385000D02*
X140792688Y-124385000D01*
X140970000Y-124119634D01*
X141147312Y-124385000D01*
X141147312Y-124385000D01*
G37*
X141147312Y-124385000D02*
X140792688Y-124385000D01*
X140970000Y-124119634D01*
X141147312Y-124385000D01*
G36*
X145340000Y-121539000D02*
X145065750Y-121539000D01*
X144907000Y-121697750D01*
X144907000Y-123063000D01*
X144927000Y-123063000D01*
X144927000Y-123317000D01*
X144907000Y-123317000D01*
X144907000Y-123337000D01*
X144653000Y-123337000D01*
X144653000Y-123317000D01*
X144633000Y-123317000D01*
X144633000Y-123063000D01*
X144653000Y-123063000D01*
X144653000Y-121697750D01*
X144494250Y-121539000D01*
X143790090Y-121539000D01*
X143556701Y-121635673D01*
X143378073Y-121814302D01*
X143314500Y-121967780D01*
X143299670Y-121945585D01*
X142959935Y-121718581D01*
X142942148Y-121629161D01*
X142777401Y-121382599D01*
X139752348Y-118357546D01*
X140273489Y-118253885D01*
X140759670Y-117929029D01*
X140970000Y-117614248D01*
X141180330Y-117929029D01*
X141666511Y-118253885D01*
X142240000Y-118367959D01*
X142813489Y-118253885D01*
X143299670Y-117929029D01*
X143624526Y-117442848D01*
X143738600Y-116869359D01*
X143738600Y-116810641D01*
X143673158Y-116481644D01*
X144682401Y-115472401D01*
X144847148Y-115225839D01*
X144905000Y-114935000D01*
X144905000Y-107629802D01*
X144919680Y-107615122D01*
X144965167Y-107615162D01*
X145308943Y-107473117D01*
X145340000Y-107442114D01*
X145340000Y-121539000D01*
X145340000Y-121539000D01*
G37*
X145340000Y-121539000D02*
X145065750Y-121539000D01*
X144907000Y-121697750D01*
X144907000Y-123063000D01*
X144927000Y-123063000D01*
X144927000Y-123317000D01*
X144907000Y-123317000D01*
X144907000Y-123337000D01*
X144653000Y-123337000D01*
X144653000Y-123317000D01*
X144633000Y-123317000D01*
X144633000Y-123063000D01*
X144653000Y-123063000D01*
X144653000Y-121697750D01*
X144494250Y-121539000D01*
X143790090Y-121539000D01*
X143556701Y-121635673D01*
X143378073Y-121814302D01*
X143314500Y-121967780D01*
X143299670Y-121945585D01*
X142959935Y-121718581D01*
X142942148Y-121629161D01*
X142777401Y-121382599D01*
X139752348Y-118357546D01*
X140273489Y-118253885D01*
X140759670Y-117929029D01*
X140970000Y-117614248D01*
X141180330Y-117929029D01*
X141666511Y-118253885D01*
X142240000Y-118367959D01*
X142813489Y-118253885D01*
X143299670Y-117929029D01*
X143624526Y-117442848D01*
X143738600Y-116869359D01*
X143738600Y-116810641D01*
X143673158Y-116481644D01*
X144682401Y-115472401D01*
X144847148Y-115225839D01*
X144905000Y-114935000D01*
X144905000Y-107629802D01*
X144919680Y-107615122D01*
X144965167Y-107615162D01*
X145308943Y-107473117D01*
X145340000Y-107442114D01*
X145340000Y-121539000D01*
G36*
X141186596Y-121941398D02*
X141180330Y-121945585D01*
X140970000Y-122260366D01*
X140851626Y-122083206D01*
X140863943Y-122078117D01*
X141093829Y-121848631D01*
X141186596Y-121941398D01*
X141186596Y-121941398D01*
G37*
X141186596Y-121941398D02*
X141180330Y-121945585D01*
X140970000Y-122260366D01*
X140851626Y-122083206D01*
X140863943Y-122078117D01*
X141093829Y-121848631D01*
X141186596Y-121941398D01*
G36*
X140843000Y-103505000D02*
X140853006Y-103554410D01*
X140880197Y-103594803D01*
X143420197Y-106134803D01*
X143462211Y-106162666D01*
X143510000Y-106172000D01*
X143978537Y-106172000D01*
X143845162Y-106493201D01*
X143845121Y-106540077D01*
X143607599Y-106777599D01*
X143442852Y-107024161D01*
X143385000Y-107315000D01*
X143385000Y-113338676D01*
X143299670Y-113210971D01*
X142813489Y-112886115D01*
X142240000Y-112772041D01*
X141666511Y-112886115D01*
X141180330Y-113210971D01*
X140970000Y-113525752D01*
X140759670Y-113210971D01*
X140273489Y-112886115D01*
X139700000Y-112772041D01*
X139126511Y-112886115D01*
X138640330Y-113210971D01*
X138430000Y-113525752D01*
X138219670Y-113210971D01*
X137733489Y-112886115D01*
X137160000Y-112772041D01*
X136586511Y-112886115D01*
X136100330Y-113210971D01*
X135884336Y-113534228D01*
X135826821Y-113411510D01*
X135394947Y-113017312D01*
X134979026Y-112845042D01*
X134747000Y-112966183D01*
X134747000Y-114173000D01*
X134767000Y-114173000D01*
X134767000Y-114427000D01*
X134747000Y-114427000D01*
X134747000Y-114447000D01*
X134493000Y-114447000D01*
X134493000Y-114427000D01*
X133285531Y-114427000D01*
X133165032Y-114659027D01*
X133413179Y-115188490D01*
X133599433Y-115358495D01*
X133521083Y-115373238D01*
X133304959Y-115512310D01*
X133159969Y-115724510D01*
X133108960Y-115976400D01*
X133108960Y-117703600D01*
X133153238Y-117938917D01*
X133292310Y-118155041D01*
X133504510Y-118300031D01*
X133756400Y-118351040D01*
X135483600Y-118351040D01*
X135718917Y-118306762D01*
X135935041Y-118167690D01*
X136080031Y-117955490D01*
X136088864Y-117911869D01*
X136100330Y-117929029D01*
X136586511Y-118253885D01*
X137160000Y-118367959D01*
X137699948Y-118260557D01*
X137727852Y-118400839D01*
X137892599Y-118647401D01*
X139770198Y-120525000D01*
X139365110Y-120525000D01*
X139365162Y-120464833D01*
X139223117Y-120121057D01*
X138960327Y-119857808D01*
X138616799Y-119715162D01*
X138244833Y-119714838D01*
X137901057Y-119856883D01*
X137867882Y-119890000D01*
X130175000Y-119890000D01*
X129884161Y-119947852D01*
X129637599Y-120112599D01*
X129002599Y-120747599D01*
X128837852Y-120994161D01*
X128780000Y-121285000D01*
X128780000Y-121745352D01*
X128480330Y-121945585D01*
X128345000Y-122148121D01*
X128345000Y-113940973D01*
X133165032Y-113940973D01*
X133285531Y-114173000D01*
X134493000Y-114173000D01*
X134493000Y-112966183D01*
X134260974Y-112845042D01*
X133845053Y-113017312D01*
X133413179Y-113411510D01*
X133165032Y-113940973D01*
X128345000Y-113940973D01*
X128345000Y-109875000D01*
X130182560Y-109875000D01*
X130182560Y-112375000D01*
X130226838Y-112610317D01*
X130365910Y-112826441D01*
X130578110Y-112971431D01*
X130830000Y-113022440D01*
X133330000Y-113022440D01*
X133565317Y-112978162D01*
X133781441Y-112839090D01*
X133926431Y-112626890D01*
X133977440Y-112375000D01*
X133977440Y-110937362D01*
X135157401Y-109757401D01*
X135322148Y-109510839D01*
X135380000Y-109220000D01*
X135380000Y-105337463D01*
X135412192Y-105305327D01*
X135554838Y-104961799D01*
X135555162Y-104589833D01*
X135413117Y-104246057D01*
X135150327Y-103982808D01*
X134806799Y-103840162D01*
X134434833Y-103839838D01*
X134091057Y-103981883D01*
X133827808Y-104244673D01*
X133685162Y-104588201D01*
X133684838Y-104960167D01*
X133826883Y-105303943D01*
X133860000Y-105337118D01*
X133860000Y-105496786D01*
X133678957Y-105058628D01*
X133149161Y-104527907D01*
X132456595Y-104240328D01*
X131706695Y-104239674D01*
X131013628Y-104526043D01*
X130482907Y-105055839D01*
X130195328Y-105748405D01*
X130194674Y-106498305D01*
X130481043Y-107191372D01*
X131010839Y-107722093D01*
X131703405Y-108009672D01*
X132453305Y-108010326D01*
X133146372Y-107723957D01*
X133677093Y-107194161D01*
X133860000Y-106753673D01*
X133860000Y-108905198D01*
X133502671Y-109262527D01*
X133330000Y-109227560D01*
X130830000Y-109227560D01*
X130594683Y-109271838D01*
X130378559Y-109410910D01*
X130233569Y-109623110D01*
X130182560Y-109875000D01*
X128345000Y-109875000D01*
X128345000Y-102458320D01*
X130926285Y-102458320D01*
X131055533Y-102751123D01*
X131755806Y-103019388D01*
X132505435Y-102999250D01*
X133104467Y-102751123D01*
X133233715Y-102458320D01*
X132080000Y-101304605D01*
X130926285Y-102458320D01*
X128345000Y-102458320D01*
X128345000Y-100800806D01*
X130185612Y-100800806D01*
X130205750Y-101550435D01*
X130453877Y-102149467D01*
X130746680Y-102278715D01*
X131900395Y-101125000D01*
X132259605Y-101125000D01*
X133413320Y-102278715D01*
X133706123Y-102149467D01*
X133974388Y-101449194D01*
X133954250Y-100699565D01*
X133706123Y-100100533D01*
X133413320Y-99971285D01*
X132259605Y-101125000D01*
X131900395Y-101125000D01*
X130746680Y-99971285D01*
X130453877Y-100100533D01*
X130185612Y-100800806D01*
X128345000Y-100800806D01*
X128345000Y-99791680D01*
X130926285Y-99791680D01*
X132080000Y-100945395D01*
X133233715Y-99791680D01*
X133104467Y-99498877D01*
X132404194Y-99230612D01*
X131654565Y-99250750D01*
X131055533Y-99498877D01*
X130926285Y-99791680D01*
X128345000Y-99791680D01*
X128345000Y-98500000D01*
X140843000Y-98500000D01*
X140843000Y-103505000D01*
X140843000Y-103505000D01*
G37*
X140843000Y-103505000D02*
X140853006Y-103554410D01*
X140880197Y-103594803D01*
X143420197Y-106134803D01*
X143462211Y-106162666D01*
X143510000Y-106172000D01*
X143978537Y-106172000D01*
X143845162Y-106493201D01*
X143845121Y-106540077D01*
X143607599Y-106777599D01*
X143442852Y-107024161D01*
X143385000Y-107315000D01*
X143385000Y-113338676D01*
X143299670Y-113210971D01*
X142813489Y-112886115D01*
X142240000Y-112772041D01*
X141666511Y-112886115D01*
X141180330Y-113210971D01*
X140970000Y-113525752D01*
X140759670Y-113210971D01*
X140273489Y-112886115D01*
X139700000Y-112772041D01*
X139126511Y-112886115D01*
X138640330Y-113210971D01*
X138430000Y-113525752D01*
X138219670Y-113210971D01*
X137733489Y-112886115D01*
X137160000Y-112772041D01*
X136586511Y-112886115D01*
X136100330Y-113210971D01*
X135884336Y-113534228D01*
X135826821Y-113411510D01*
X135394947Y-113017312D01*
X134979026Y-112845042D01*
X134747000Y-112966183D01*
X134747000Y-114173000D01*
X134767000Y-114173000D01*
X134767000Y-114427000D01*
X134747000Y-114427000D01*
X134747000Y-114447000D01*
X134493000Y-114447000D01*
X134493000Y-114427000D01*
X133285531Y-114427000D01*
X133165032Y-114659027D01*
X133413179Y-115188490D01*
X133599433Y-115358495D01*
X133521083Y-115373238D01*
X133304959Y-115512310D01*
X133159969Y-115724510D01*
X133108960Y-115976400D01*
X133108960Y-117703600D01*
X133153238Y-117938917D01*
X133292310Y-118155041D01*
X133504510Y-118300031D01*
X133756400Y-118351040D01*
X135483600Y-118351040D01*
X135718917Y-118306762D01*
X135935041Y-118167690D01*
X136080031Y-117955490D01*
X136088864Y-117911869D01*
X136100330Y-117929029D01*
X136586511Y-118253885D01*
X137160000Y-118367959D01*
X137699948Y-118260557D01*
X137727852Y-118400839D01*
X137892599Y-118647401D01*
X139770198Y-120525000D01*
X139365110Y-120525000D01*
X139365162Y-120464833D01*
X139223117Y-120121057D01*
X138960327Y-119857808D01*
X138616799Y-119715162D01*
X138244833Y-119714838D01*
X137901057Y-119856883D01*
X137867882Y-119890000D01*
X130175000Y-119890000D01*
X129884161Y-119947852D01*
X129637599Y-120112599D01*
X129002599Y-120747599D01*
X128837852Y-120994161D01*
X128780000Y-121285000D01*
X128780000Y-121745352D01*
X128480330Y-121945585D01*
X128345000Y-122148121D01*
X128345000Y-113940973D01*
X133165032Y-113940973D01*
X133285531Y-114173000D01*
X134493000Y-114173000D01*
X134493000Y-112966183D01*
X134260974Y-112845042D01*
X133845053Y-113017312D01*
X133413179Y-113411510D01*
X133165032Y-113940973D01*
X128345000Y-113940973D01*
X128345000Y-109875000D01*
X130182560Y-109875000D01*
X130182560Y-112375000D01*
X130226838Y-112610317D01*
X130365910Y-112826441D01*
X130578110Y-112971431D01*
X130830000Y-113022440D01*
X133330000Y-113022440D01*
X133565317Y-112978162D01*
X133781441Y-112839090D01*
X133926431Y-112626890D01*
X133977440Y-112375000D01*
X133977440Y-110937362D01*
X135157401Y-109757401D01*
X135322148Y-109510839D01*
X135380000Y-109220000D01*
X135380000Y-105337463D01*
X135412192Y-105305327D01*
X135554838Y-104961799D01*
X135555162Y-104589833D01*
X135413117Y-104246057D01*
X135150327Y-103982808D01*
X134806799Y-103840162D01*
X134434833Y-103839838D01*
X134091057Y-103981883D01*
X133827808Y-104244673D01*
X133685162Y-104588201D01*
X133684838Y-104960167D01*
X133826883Y-105303943D01*
X133860000Y-105337118D01*
X133860000Y-105496786D01*
X133678957Y-105058628D01*
X133149161Y-104527907D01*
X132456595Y-104240328D01*
X131706695Y-104239674D01*
X131013628Y-104526043D01*
X130482907Y-105055839D01*
X130195328Y-105748405D01*
X130194674Y-106498305D01*
X130481043Y-107191372D01*
X131010839Y-107722093D01*
X131703405Y-108009672D01*
X132453305Y-108010326D01*
X133146372Y-107723957D01*
X133677093Y-107194161D01*
X133860000Y-106753673D01*
X133860000Y-108905198D01*
X133502671Y-109262527D01*
X133330000Y-109227560D01*
X130830000Y-109227560D01*
X130594683Y-109271838D01*
X130378559Y-109410910D01*
X130233569Y-109623110D01*
X130182560Y-109875000D01*
X128345000Y-109875000D01*
X128345000Y-102458320D01*
X130926285Y-102458320D01*
X131055533Y-102751123D01*
X131755806Y-103019388D01*
X132505435Y-102999250D01*
X133104467Y-102751123D01*
X133233715Y-102458320D01*
X132080000Y-101304605D01*
X130926285Y-102458320D01*
X128345000Y-102458320D01*
X128345000Y-100800806D01*
X130185612Y-100800806D01*
X130205750Y-101550435D01*
X130453877Y-102149467D01*
X130746680Y-102278715D01*
X131900395Y-101125000D01*
X132259605Y-101125000D01*
X133413320Y-102278715D01*
X133706123Y-102149467D01*
X133974388Y-101449194D01*
X133954250Y-100699565D01*
X133706123Y-100100533D01*
X133413320Y-99971285D01*
X132259605Y-101125000D01*
X131900395Y-101125000D01*
X130746680Y-99971285D01*
X130453877Y-100100533D01*
X130185612Y-100800806D01*
X128345000Y-100800806D01*
X128345000Y-99791680D01*
X130926285Y-99791680D01*
X132080000Y-100945395D01*
X133233715Y-99791680D01*
X133104467Y-99498877D01*
X132404194Y-99230612D01*
X131654565Y-99250750D01*
X131055533Y-99498877D01*
X130926285Y-99791680D01*
X128345000Y-99791680D01*
X128345000Y-98500000D01*
X140843000Y-98500000D01*
X140843000Y-103505000D01*
M02*
